<mxfile host="app.diagrams.net" modified="2023-10-26T15:37:50.751Z" agent="Mozilla/5.0 (Windows NT 10.0; Win64; x64) AppleWebKit/537.36 (KHTML, like Gecko) Chrome/116.0.0.0 Safari/537.36 OPR/102.0.0.0 (Edition std-1)" etag="qwH9tm8xj9_0TVUnX_Dc" version="22.0.8" type="github">
  <diagram name="Página-1" id="KKUMYGBFK-s-r6j1WzA3">
    <mxGraphModel dx="4295" dy="1703" grid="1" gridSize="10" guides="1" tooltips="1" connect="1" arrows="1" fold="1" page="1" pageScale="1" pageWidth="827" pageHeight="1169" math="0" shadow="0">
      <root>
        <mxCell id="0" />
        <mxCell id="1" parent="0" />
        <UserObject label="" plantUmlData="{&quot;data&quot;:&quot;@startuml\n\n!define AWSPU https://raw.githubusercontent.com/rabelenda/cicon-plantuml-skins/v2.2.5/dist\n\n!define SPRITESURL https://raw.githubusercontent.com/rabelenda/cicon-plantuml-skins/v2.2.5/dist/sprites/\n!define SPRITES cicon-aws/ECS-optimized,awspu/Group-fargate,awspu/Diagram-Scope,awspu/Group-purple-sz8,awspu/Elastic-Beanstalk-alt-sz8\n!define SPRITESFORMAT svg\n\n!define DESCRIPTION https://raw.githubusercontent.com/rabelenda/cicon-plantuml-skins/v2.2.5/dist/awspu-description-sz16.plantuml\n!define DESCRIPTIONSTYLE rectangle\n!define DESCRIPTIONSIZE 16\n\n!define LABELURL https://raw.githubusercontent.com/rabelenda/cicon-plantuml-skins/v2.2.5/dist/awspu-label-sz16.plantuml\n!define LABELSTYLE cloud\n!define LABELSIZE 16\n!define LABELCOLOR #ffffff\n\n!define LEGENDURL https://raw.githubusercontent.com/rabelenda/cicon-plantuml-skins/v2.2.5/dist/legend.plantuml\n\n!define DEFAULT_COLOR #FFB740\n\nskinparam nodesep 30\nskinparam ranksep 40\nskinparam maxpsarrowsize 0.5\nskinparam handwritten true\nskinparam wrapWidth 100\nskinparam linetype ortho\nskinparam lattice true\n\ntop to bottom direction\nskinparam packageStyle rectangle\n\nactor \&quot;Funcionário Responsável pela Análise da Qualidade da Água\&quot; as Funcionario\nactor \&quot;Sistema\&quot; as Sistema\nactor \&quot;Funcionários Autorizados\&quot; as Funcionarios\nactor \&quot;Administrador do Sistema\&quot; as Administrador\n\nrectangle \&quot;Casos de Uso\&quot; {\n  usecase \&quot;Armazenar Dados da Água\&quot; as Armazenar\n  usecase \&quot;Analisar Dados da Água\&quot; as Analisar\n  usecase \&quot;Comparar Dados da Água\&quot; as Comparar\n  usecase \&quot;Gerar Alertas\&quot; as GerarAlertas\n  usecase \&quot;Acesso a Relatórios\&quot; as AcessoRelatorios\n  usecase \&quot;Configurar Parâmetros de Alerta\&quot; as ConfigurarParametros\n  usecase \&quot;Visualizar Dados da Água em Tempo Real\&quot; as VisualizarEmTempoReal\n  usecase \&quot;Gerenciar Usuários e Permissões\&quot; as GerenciarUsuarios\n  usecase \&quot;Exportar Dados da Água\&quot; as ExportarDados\n}\n\nFuncionario --&gt; Analisar\nFuncionario --&gt; Comparar\nSistema --&gt; Armazenar\nFuncionarios --&gt; AcessoRelatorios\nAdministrador --&gt; ConfigurarParametros\nFuncionarios --&gt; VisualizarEmTempoReal\nAdministrador --&gt; GerenciarUsuarios\nFuncionarios --&gt; ExportarDados\nSistema --&gt; GerarAlertas\n\nArmazenar --&gt; Analisar : &lt;&lt;include&gt;&gt;\nAnalisar --&gt; Comparar : &lt;&lt;include&gt;&gt;\nGerarAlertas --&gt; AcessoRelatorios : &lt;&lt;extend&gt;&gt;\nConfigurarParametros --&gt; GerarAlertas : &lt;&lt;extend&gt;&gt;\n\n@enduml\n&quot;,&quot;format&quot;:&quot;svg&quot;}" id="ALNRQe8ZHQbN1th5ojGz-2">
          <mxCell style="shape=image;noLabel=1;verticalAlign=top;aspect=fixed;imageAspect=0;image=data:image/svg+xml,PD94bWwgdmVyc2lvbj0iMS4wIiBlbmNvZGluZz0idXMtYXNjaWkiIHN0YW5kYWxvbmU9Im5vIj8+PHN2ZyB4bWxucz0iaHR0cDovL3d3dy53My5vcmcvMjAwMC9zdmciIHhtbG5zOnhsaW5rPSJodHRwOi8vd3d3LnczLm9yZy8xOTk5L3hsaW5rIiBjb250ZW50U3R5bGVUeXBlPSJ0ZXh0L2NzcyIgaGVpZ2h0PSI0NjhweCIgcHJlc2VydmVBc3BlY3RSYXRpbz0ibm9uZSIgc3R5bGU9IndpZHRoOjEwNjlweDtoZWlnaHQ6NDY4cHg7YmFja2dyb3VuZDojRkZGRkZGOyIgdmVyc2lvbj0iMS4xIiB2aWV3Qm94PSIwIDAgMTA2OSA0NjgiIHdpZHRoPSIxMDY5cHgiIHpvb21BbmRQYW49Im1hZ25pZnkiPjxkZWZzLz48Zz48IS0tY2x1c3RlciBDYXNvcyBkZSBVc28tLT48ZyBpZD0iY2x1c3Rlcl9DYXNvcyBkZSBVc28iPjxwb2x5Z29uIGZpbGw9Im5vbmUiIHBvaW50cz0iMTY4LjUsMTM1LDE2OC41LDEzNS4yMTAyLDE3OC41MjI1LDEzNC41ODU3LDE4OC41NDQ5LDEzNS4xOTMzLDE5OC41Njc0LDEzNS4zOTk3LDIwOC41ODk5LDEzNC4yODY2LDIxOC42MTI0LDEzNC45MjIzLDIyOC42MzQ4LDEzNC41NzM1LDIzOC42NTczLDEzNC42MTY1LDI0OC42Nzk4LDEzNC45MzE4LDI1OC43MDIyLDEzNC4zMDg2LDI2OC43MjQ3LDEzNS41NTM2LDI3OC43NDcyLDEzNC4zNjk3LDI4OC43Njk3LDEzNC44MDIyLDI5OC43OTIxLDEzNS40MzE5LDMwOC44MTQ2LDEzNC45MTQyLDMxOC44MzcxLDEzNS4wNjgyLDMyOC44NTk2LDEzNC45NjgxLDMzOC44ODIsMTM1LjE3ODUsMzQ4LjkwNDUsMTM1LjIzOTEsMzU4LjkyNywxMzUuNTg1NywzNjguOTQ5NCwxMzUuNjcxMSwzNzguOTcxOSwxMzUuNjc5MywzODguOTk0NCwxMzUuMjU0NiwzOTkuMDE2OSwxMzUuNDYzNiw0MDkuMDM5MywxMzUuNzAyMiw0MTkuMDYxOCwxMzQuMjc4OCw0MjkuMDg0MywxMzUuNjc4NSw0MzkuMTA2NywxMzQuNzAzNSw0NDkuMTI5MiwxMzUuNTMzOCw0NTkuMTUxNywxMzQuNTA1LDQ2OS4xNzQyLDEzNC45MzE1LDQ3OS4xOTY2LDEzNS43NDE2LDQ4OS4yMTkxLDEzNC45NTEzLDQ5OS4yNDE2LDEzNS4xMDUzLDUwOS4yNjQsMTM1LjMzODYsNTE5LjI4NjUsMTM1LjQxNjIsNTI5LjMwOSwxMzQuOTk2MSw1MzkuMzMxNSwxMzUuMjg3Miw1NDkuMzUzOSwxMzQuNDI3Niw1NTkuMzc2NCwxMzUuMjg0NCw1NjkuMzk4OSwxMzUuNTQ4Miw1NzkuNDIxMywxMzUuNDQ0NSw1ODkuNDQzOCwxMzUuNjEzLDU5OS40NjYzLDEzNC41MTY5LDYwOS40ODg4LDEzNC4zNDc4LDYxOS41MTEyLDEzNC4zNzg2LDYyOS41MzM3LDEzNC45NDExLDYzOS41NTYyLDEzNC44MDM1LDY0OS41Nzg3LDEzNS42ODE0LDY1OS42MDExLDEzNC44MjUzLDY2OS42MjM2LDEzNC42NTY5LDY3OS42NDYxLDEzNS4yMjgzLDY4OS42Njg1LDEzNC4zMzMyLDY5OS42OTEsMTM0LjQ4MDksNzA5LjcxMzUsMTM1LjY0OSw3MTkuNzM2LDEzNS40MzU3LDcyOS43NTg0LDEzNS43MzQ1LDczOS43ODA5LDEzNC42NzgyLDc0OS44MDM0LDEzNS4zMTkyLDc1OS44MjU4LDEzNS41OTA0LDc2OS44NDgzLDEzNC41Mjc2LDc3OS44NzA4LDEzNC45MDQxLDc4OS44OTMzLDEzNS4xMjYsNzk5LjkxNTcsMTM1LjY1MTgsODA5LjkzODIsMTM0Ljk5NTgsODE5Ljk2MDcsMTM1LjQ2MjYsODI5Ljk4MzEsMTM0LjQ0NjIsODQwLjAwNTYsMTM0LjMyMjcsODUwLjAyODEsMTM1LjUwMzYsODYwLjA1MDYsMTM0LjI4MzEsODcwLjA3MywxMzUuNTA5LDg4MC4wOTU1LDEzNS4yMDY2LDg5MC4xMTgsMTM0LjczMjEsOTAwLjE0MDQsMTM0LjY0NjIsOTEwLjE2MjksMTM1LjQ1ODgsOTIwLjE4NTQsMTM0LjcwMDcsOTMwLjIwNzksMTM1LjU5MTksOTQwLjIzMDMsMTM0LjQ0NzMsOTUwLjI1MjgsMTM1LjYxNzQsOTYwLjI3NTMsMTM1LjQ4NDMsOTcwLjI5NzgsMTM1LjI0NSw5ODAuMzIwMiwxMzUuMDQ3Miw5OTAuMzQyNywxMzUuNzI2NiwxMDAwLjM2NTIsMTM1LjYxMzYsMTAxMC4zODc2LDEzNS4xNjkzLDEwMjAuNDEwMSwxMzUuMjY4MiwxMDMwLjQzMjYsMTM0Ljg2OTcsMTA0MC40NTUxLDEzNS43MTY1LDEwNTAuNDc3NSwxMzUuMTU0OSwxMDYwLjUsMTM1LDEwNjAuNTIyLDEzNS4wNTMxLDEwNjAuNzc2LDEzNC45NTkxLDEwNjEuMTU1NCwxMzUuMTY4MSwxMDYxLjYyODQsMTM1LjYwMjgsMTA2MS45NjksMTM1LjcxODEsMTA2Mi4yNjc4LDEzNS43MzIyLDEwNjIuMjU0NSwxMzUuNzI2OCwxMDYyLjMxNSwxMzYuMDQ0NywxMDYyLjQ5MzIsMTM2LjQxMTQsMTA2Mi40OTU4LDEzNi43MDU0LDEwNjIuOTgxMywxMzcuMTk5NCwxMDYzLDEzNy41LDEwNjMuNzM5NiwxMzcuNSwxMDYzLjUyNjQsMTQ3LjU3ODEsMTA2My42OTQ5LDE1Ny42NTYzLDEwNjIuODYzMywxNjcuNzM0NCwxMDYzLjA4NzIsMTc3LjgxMjUsMTA2Mi42MTI0LDE4Ny44OTA2LDEwNjMuMjg0LDE5Ny45Njg4LDEwNjMuMjQ2OCwyMDguMDQ2OSwxMDYzLjU1MjQsMjE4LjEyNSwxMDYyLjc3MDMsMjI4LjIwMzEsMTA2Mi44NjU2LDIzOC4yODEzLDEwNjMuNDQzNSwyNDguMzU5NCwxMDYzLjU2NzMsMjU4LjQzNzUsMTA2Mi40ODc1LDI2OC41MTU2LDEwNjIuODA2MSwyNzguNTkzOCwxMDYzLjE0OTMsMjg4LjY3MTksMTA2Mi4zODkyLDI5OC43NSwxMDYzLjM1MzQsMzA4LjgyODEsMTA2My4yNTgsMzE4LjkwNjMsMTA2Mi44OTkyLDMyOC45ODQ0LDEwNjMuMTQyMiwzMzkuMDYyNSwxMDYzLjcyODcsMzQ5LjE0MDYsMTA2Mi42ODcxLDM1OS4yMTg4LDEwNjMuMzE1LDM2OS4yOTY5LDEwNjMuMjg1NiwzNzkuMzc1LDEwNjMuMTE1OCwzODkuNDUzMSwxMDYzLjE0MDksMzk5LjUzMTMsMTA2My4xMTM1LDQwOS42MDk0LDEwNjIuMzc1OCw0MTkuNjg3NSwxMDYyLjU5OTIsNDI5Ljc2NTYsMTA2Mi41Mzg1LDQzOS44NDM4LDEwNjMuMDYzOCw0NDkuOTIxOSwxMDYzLDQ2MCwxMDYzLjAyNzEsNDYwLjAxMTIsMTA2Mi45MDM0LDQ2MC4zNzQyLDEwNjIuNjE3NSw0NjAuNjcsMTA2Mi41Mzk5LDQ2MS4wNTIsMTA2Mi4zNzcyLDQ2MS4zOTg5LDEwNjIuMjY3OCw0NjEuNzY3OCwxMDYyLjM0MTQsNDYxLjk0NTQsMTA2MS45Njg2LDQ2Mi4wNDU2LDEwNjEuNDk4Nyw0NjEuOTExMSwxMDYxLjE5NzgsNDYyLjE4NDYsMTA2MC43Nzk5LDQ2Mi4xNzU4LDEwNjAuNSw0NjIuNSwxMDYwLjUsNDYyLjc4ODQsMTA1MC40Nzc1LDQ2My4xMDg1LDEwNDAuNDU1MSw0NjMuMDQ0NiwxMDMwLjQzMjYsNDYyLjA2NDQsMTAyMC40MTAxLDQ2Mi45NjQsMTAxMC4zODc2LDQ2MS43NTcyLDEwMDAuMzY1Miw0NjIuNzAwMiw5OTAuMzQyNyw0NjIuMjAwNyw5ODAuMzIwMiw0NjIuNTk2Nyw5NzAuMjk3OCw0NjIuNzQwMyw5NjAuMjc1Myw0NjIuOTcyMSw5NTAuMjUyOCw0NjEuNzgwMSw5NDAuMjMwMyw0NjIuOTc1NSw5MzAuMjA3OSw0NjIuNjc4Miw5MjAuMTg1NCw0NjIuODU1Myw5MTAuMTYyOSw0NjMuMjQ3OCw5MDAuMTQwNCw0NjIuNTA1NSw4OTAuMTE4LDQ2Mi42NzUzLDg4MC4wOTU1LDQ2Mi43MTM0LDg3MC4wNzMsNDYyLjY5NzIsODYwLjA1MDYsNDYyLjQ5OTIsODUwLjAyODEsNDYzLjIxMDcsODQwLjAwNTYsNDYxLjg5MDMsODI5Ljk4MzEsNDYzLjA2NTMsODE5Ljk2MDcsNDYxLjg3Niw4MDkuOTM4Miw0NjEuOTU5Nyw3OTkuOTE1Nyw0NjIuNTQsNzg5Ljg5MzMsNDYyLjUyODMsNzc5Ljg3MDgsNDYyLjAwNzIsNzY5Ljg0ODMsNDYyLjkxMzcsNzU5LjgyNTgsNDYyLjYwODksNzQ5LjgwMzQsNDYzLjIyNjcsNzM5Ljc4MDksNDYzLjE2NzEsNzI5Ljc1ODQsNDYyLjA1MTcsNzE5LjczNiw0NjIuMTAyMSw3MDkuNzEzNSw0NjIuMzcwOCw2OTkuNjkxLDQ2Mi44NTU1LDY4OS42Njg1LDQ2Mi45MDMsNjc5LjY0NjEsNDYyLjgwMTIsNjY5LjYyMzYsNDYyLjE1OCw2NTkuNjAxMSw0NjMuMTM2NCw2NDkuNTc4Nyw0NjMuMTMzOCw2MzkuNTU2Miw0NjIuNDUyNyw2MjkuNTMzNyw0NjIuMjYwOSw2MTkuNTExMiw0NjIuMDk4Niw2MDkuNDg4OCw0NjIuMjg1NCw1OTkuNDY2Myw0NjIuNjM3NCw1ODkuNDQzOCw0NjIuNDMxNiw1NzkuNDIxMyw0NjIuMDgyMiw1NjkuMzk4OSw0NjIuOTg3NCw1NTkuMzc2NCw0NjIuMDQxMSw1NDkuMzUzOSw0NjMuMDAyNCw1MzkuMzMxNSw0NjIuOTI3Miw1MjkuMzA5LDQ2Mi44NzE5LDUxOS4yODY1LDQ2My4xOTI1LDUwOS4yNjQsNDYyLjI1NDEsNDk5LjI0MTYsNDYyLjE5OTQsNDg5LjIxOTEsNDYzLjAxODksNDc5LjE5NjYsNDYxLjkwMzEsNDY5LjE3NDIsNDYyLjI2Niw0NTkuMTUxNyw0NjIuNjE1NSw0NDkuMTI5Miw0NjIuNTY4Nyw0MzkuMTA2Nyw0NjIuMTQxNSw0MjkuMDg0Myw0NjIuNDU3LDQxOS4wNjE4LDQ2My4yNDQ2LDQwOS4wMzkzLDQ2My4xNDg1LDM5OS4wMTY5LDQ2MS45MDM3LDM4OC45OTQ0LDQ2Mi41Nzg1LDM3OC45NzE5LDQ2MS45ODYxLDM2OC45NDk0LDQ2Mi40NzM3LDM1OC45MjcsNDYyLjc5MywzNDguOTA0NSw0NjIuOTE5OSwzMzguODgyLDQ2MS44MzUzLDMyOC44NTk2LDQ2Mi45MDA1LDMxOC44MzcxLDQ2Mi41MDg0LDMwOC44MTQ2LDQ2MS45NDQ3LDI5OC43OTIxLDQ2Mi4wMjg5LDI4OC43Njk3LDQ2Mi44MjY2LDI3OC43NDcyLDQ2Mi43NDk5LDI2OC43MjQ3LDQ2Mi40ODM2LDI1OC43MDIyLDQ2MS44Mjc5LDI0OC42Nzk4LDQ2My4xNTgxLDIzOC42NTczLDQ2Mi4xODgyLDIyOC42MzQ4LDQ2MS45NzE5LDIxOC42MTI0LDQ2Mi40MzI3LDIwOC41ODk5LDQ2My4wODk3LDE5OC41Njc0LDQ2My4xMTU0LDE4OC41NDQ5LDQ2Mi41MzUxLDE3OC41MjI1LDQ2Mi4zNDg4LDE2OC41LDQ2Mi41LDE2OC41MjE3LDQ2Mi41NTIzLDE2OC4xNzAyLDQ2Mi40MTA5LDE2Ny43MjgxLDQ2Mi4wNTA3LDE2Ny40OTIxLDQ2Mi4xODgxLDE2Ny4xNTcxLDQ2Mi4wODYzLDE2Ni43MzIyLDQ2MS43Njc4LDE2Ni42NjU4LDQ2MS43NDAyLDE2Ni40NTM2LDQ2MS4zNTk1LDE2Ni42NDcxLDQ2MS4xNDY3LDE2Ni4yOTk0LDQ2MC43MDk4LDE2Ni4xNDY0LDQ2MC4zNTM1LDE2Niw0NjAsMTY2LjI5OSw0NjAsMTY1LjM1NDMsNDQ5LjkyMTksMTY2LjUzLDQzOS44NDM4LDE2NS45ODQ2LDQyOS43NjU2LDE2Ni42Njg4LDQxOS42ODc1LDE2NS43ODQxLDQwOS42MDk0LDE2Ni40MDksMzk5LjUzMTMsMTY1LjU1NiwzODkuNDUzMSwxNjYuMjQ1LDM3OS4zNzUsMTY2LjM3OTMsMzY5LjI5NjksMTY1LjY3MjcsMzU5LjIxODgsMTY2LjM2MywzNDkuMTQwNiwxNjUuNDI4NiwzMzkuMDYyNSwxNjUuNTI5NSwzMjguOTg0NCwxNjYuNjgyOCwzMTguOTA2MywxNjYuNjg0NCwzMDguODI4MSwxNjYuNTY4NSwyOTguNzUsMTY1LjYzOTYsMjg4LjY3MTksMTY2LjM4NDIsMjc4LjU5MzgsMTY1LjUyNzksMjY4LjUxNTYsMTY2LjA1ODIsMjU4LjQzNzUsMTY1Ljk5ODcsMjQ4LjM1OTQsMTY1LjczNzYsMjM4LjI4MTMsMTY2LjYxNTksMjI4LjIwMzEsMTY2LjQ0MzMsMjE4LjEyNSwxNjUuNjc5MiwyMDguMDQ2OSwxNjYuNTI2NiwxOTcuOTY4OCwxNjYuMDkxOSwxODcuODkwNiwxNjUuNDE2NCwxNzcuODEyNSwxNjUuNzY2NywxNjcuNzM0NCwxNjUuNDc0NywxNTcuNjU2MywxNjUuODYwOSwxNDcuNTc4MSwxNjYsMTM3LjUsMTY1LjgwNjMsMTM3LjQxOTgsMTY1Ljk2MTYsMTM3LjA2OTksMTY2LjMxNDUsMTM2LjgwMTksMTY2LjQwMjMsMTM2LjQyNCwxNjYuNTY3OCwxMzYuMDc4MywxNjYuNzMyMiwxMzUuNzMyMiwxNjYuNzE0LDEzNS42ODgxLDE2Ny4xMDcxLDEzNS42MzczLDE2Ny4zNjg1LDEzNS4yNjg0LDE2Ny44MTMzLDEzNS4zNDIyLDE2OC4wNTE3LDEzNC45MTc2LDE2OC41LDEzNSIgc3R5bGU9InN0cm9rZTojMTgxODE4O3N0cm9rZS13aWR0aDoxLjA7Ii8+PHRleHQgZmlsbD0iIzAwMDAwMCIgZm9udC1mYW1pbHk9InNhbnMtc2VyaWYiIGZvbnQtc2l6ZT0iMTQiIGZvbnQtd2VpZ2h0PSJib2xkIiBsZW5ndGhBZGp1c3Q9InNwYWNpbmciIHRleHRMZW5ndGg9Ijg0IiB4PSI1NzIuNSIgeT0iMTUwLjIzNDQiPkNhc29zIGRlIFVzbzwvdGV4dD48L2c+PGcgaWQ9ImVsZW1fQXJtYXplbmFyIj48cG9seWdvbiBmaWxsPSIjRjFGMUYxIiBwb2ludHM9IjMzMi4zMDU0LDIwNi44Mzk4LDMzMC43OTAzLDIxMC45MzM4LDMyNS4wMDc5LDIxNC4wNDksMzE4LjM3MzEsMjE3LjE1MjUsMzEyLjg5NTksMjIwLjc1NywzMDIuNTYyMSwyMjIuODEyMywyOTMuMTIxNSwyMjUuMDIwNywyODIuMDQwOSwyMjYuNDQ1NiwyNjkuODMyNiwyMjcuMTI4MywyNTkuMjMwMSwyMjcuODI4MiwyNDQuODQ5NywyMjYuNzI3MiwyMzUuNjczMiwyMjYuNjA0OCwyMjMuODA0OSwyMjQuODczMSwyMTIuMzg1NiwyMjIuNDgzNSwyMDQuMzg0MSwyMjAuMzUyMSwxOTYuMzQ0NiwyMTcuMzY2MywxOTAuMzI5OCwyMTQuMTk0MiwxODUuMzUwNSwyMTAuNTUxNCwxODIuNDUsMjA2LjgyMTIsMTgwLjgxNTYsMjAyLjgxMzMsMTgxLjU3NjYsMTk4Ljk3MzksMTg0LjMzNzksMTk1LjI3NzUsMTg5Ljc1MDMsMTkyLjA0NDMsMTk1LjU0NTIsMTg4LjY3MjksMjAyLjc5MDYsMTg1LjYzMjQsMjE0LjcxNzQsMTg0LjA4NTMsMjIyLjAzMjksMTgxLjE5OSwyMzQuOTk4MiwxODAuMzc1MywyNDQuODg5OCwxNzguOTUzNSwyNTguODMzLDE3OS4zMTkzLDI2OS44MzMzLDE3OS4zNDIsMjc5Ljc2NTcsMTc5LjcwNTYsMjkyLjM1NzYsMTgxLjY2ODEsMzAyLjE5MiwxODMuNTUyMiwzMTAuNzY4NSwxODUuODY3LDMxOC4zMzk3LDE4OC43MDM0LDMyNS40MDY3LDE5Mi4yMTExLDMyOS4zNzE3LDE5NS41MzA0LDMzMy44ODc5LDE5OS43NzYsMzMzLjA4ODksMjAzLjAwNzYiIHN0eWxlPSJzdHJva2U6IzE4MTgxODtzdHJva2Utd2lkdGg6MC41OyIvPjx0ZXh0IGZpbGw9IiMwMDAwMDAiIGZvbnQtZmFtaWx5PSJzYW5zLXNlcmlmIiBmb250LXNpemU9IjE0IiBsZW5ndGhBZGp1c3Q9InNwYWNpbmciIHRleHRMZW5ndGg9IjY0IiB4PSIyMjUuODMyIiB5PSIxOTkuNDQxMSI+QXJtYXplbmFyPC90ZXh0Pjx0ZXh0IGZpbGw9IiMwMDAwMDAiIGZvbnQtZmFtaWx5PSJzYW5zLXNlcmlmIiBmb250LXNpemU9IjE0IiBsZW5ndGhBZGp1c3Q9InNwYWNpbmciIHRleHRMZW5ndGg9IjM1IiB4PSIyMTIuMzMyIiB5PSIyMTQuNDI1NSI+RGFkb3M8L3RleHQ+PHRleHQgZmlsbD0iIzAwMDAwMCIgZm9udC1mYW1pbHk9InNhbnMtc2VyaWYiIGZvbnQtc2l6ZT0iMTQiIGxlbmd0aEFkanVzdD0ic3BhY2luZyIgdGV4dExlbmd0aD0iNyIgeD0iMjQ3LjMzMiIgeT0iMjE0LjQyNTUiPiYjMTYwOzwvdGV4dD48dGV4dCBmaWxsPSIjMDAwMDAwIiBmb250LWZhbWlseT0ic2Fucy1zZXJpZiIgZm9udC1zaXplPSIxNCIgbGVuZ3RoQWRqdXN0PSJzcGFjaW5nIiB0ZXh0TGVuZ3RoPSIxNCIgeD0iMjU0LjMzMiIgeT0iMjE0LjQyNTUiPmRhPC90ZXh0Pjx0ZXh0IGZpbGw9IiMwMDAwMDAiIGZvbnQtZmFtaWx5PSJzYW5zLXNlcmlmIiBmb250LXNpemU9IjE0IiBsZW5ndGhBZGp1c3Q9InNwYWNpbmciIHRleHRMZW5ndGg9IjciIHg9IjI2OC4zMzIiIHk9IjIxNC40MjU1Ij4mIzE2MDs8L3RleHQ+PHRleHQgZmlsbD0iIzAwMDAwMCIgZm9udC1mYW1pbHk9InNhbnMtc2VyaWYiIGZvbnQtc2l6ZT0iMTQiIGxlbmd0aEFkanVzdD0ic3BhY2luZyIgdGV4dExlbmd0aD0iMjgiIHg9IjI3NS4zMzIiIHk9IjIxNC40MjU1Ij4mIzE5MztndWE8L3RleHQ+PC9nPjxnIGlkPSJlbGVtX0FuYWxpc2FyIj48cG9seWdvbiBmaWxsPSIjRjFGMUYxIiBwb2ludHM9IjM0Mi4xMTYyLDMzOC4zMzk4LDM0MC41MDIzLDM0Mi40MzM4LDMzNC4zNDI0LDM0NS41NDksMzI3LjI3NDYsMzQ4LjY1MjUsMzIxLjQzOTgsMzUyLjI1NywzMTAuNDMxNSwzNTQuMzEyMywzMDAuMzc0NiwzNTYuNTIwNywyODguNTcwOCwzNTcuOTQ1NiwyNzUuNTY1NiwzNTguNjI4MywyNjQuMjcxMSwzNTkuMzI4MiwyNDguOTUyMSwzNTguMjI3MiwyMzkuMTc2NiwzNTguMTA0OCwyMjYuNTMzNiwzNTYuMzczMSwyMTQuMzY4OSwzNTMuOTgzNSwyMDUuODQ1MiwzNTEuODUyMSwxOTcuMjgwOSwzNDguODY2MywxOTAuODczNSwzNDUuNjk0MiwxODUuNTY5MiwzNDIuMDUxNCwxODIuNDc5NCwzMzguMzIxMiwxODAuNzM4MywzMzQuMzEzMywxODEuNTQ5LDMzMC40NzM5LDE4NC40OTA1LDMyNi43Nzc1LDE5MC4yNTYyLDMyMy41NDQzLDE5Ni40MjkzLDMyMC4xNzI5LDIwNC4xNDc3LDMxNy4xMzI0LDIxNi44NTMsMzE1LjU4NTMsMjI0LjY0NiwzMTIuNjk5LDIzOC40NTc1LDMxMS44NzUzLDI0OC45OTQ4LDMxMC40NTM1LDI2My44NDgxLDMxMC44MTkzLDI3NS41NjY0LDMxMC44NDIsMjg2LjE0NzEsMzExLjIwNTYsMjk5LjU2MDksMzEzLjE2ODEsMzEwLjAzNzIsMzE1LjA1MjIsMzE5LjE3MzYsMzE3LjM2NywzMjcuMjM4OSwzMjAuMjAzNCwzMzQuNzY3MiwzMjMuNzExMSwzMzguOTkxLDMyNy4wMzA0LDM0My44MDIsMzMxLjI3NiwzNDIuOTUwOSwzMzQuNTA3NiIgc3R5bGU9InN0cm9rZTojMTgxODE4O3N0cm9rZS13aWR0aDowLjU7Ii8+PHRleHQgZmlsbD0iIzAwMDAwMCIgZm9udC1mYW1pbHk9InNhbnMtc2VyaWYiIGZvbnQtc2l6ZT0iMTQiIGxlbmd0aEFkanVzdD0ic3BhY2luZyIgdGV4dExlbmd0aD0iNTYiIHg9IjIxMy43ODE3IiB5PSIzMzAuOTQxMSI+QW5hbGlzYXI8L3RleHQ+PHRleHQgZmlsbD0iIzAwMDAwMCIgZm9udC1mYW1pbHk9InNhbnMtc2VyaWYiIGZvbnQtc2l6ZT0iMTQiIGxlbmd0aEFkanVzdD0ic3BhY2luZyIgdGV4dExlbmd0aD0iNyIgeD0iMjY5Ljc4MTciIHk9IjMzMC45NDExIj4mIzE2MDs8L3RleHQ+PHRleHQgZmlsbD0iIzAwMDAwMCIgZm9udC1mYW1pbHk9InNhbnMtc2VyaWYiIGZvbnQtc2l6ZT0iMTQiIGxlbmd0aEFkanVzdD0ic3BhY2luZyIgdGV4dExlbmd0aD0iMzUiIHg9IjI3Ni43ODE3IiB5PSIzMzAuOTQxMSI+RGFkb3M8L3RleHQ+PHRleHQgZmlsbD0iIzAwMDAwMCIgZm9udC1mYW1pbHk9InNhbnMtc2VyaWYiIGZvbnQtc2l6ZT0iMTQiIGxlbmd0aEFkanVzdD0ic3BhY2luZyIgdGV4dExlbmd0aD0iMTQiIHg9IjIzOC4yODE3IiB5PSIzNDUuOTI1NSI+ZGE8L3RleHQ+PHRleHQgZmlsbD0iIzAwMDAwMCIgZm9udC1mYW1pbHk9InNhbnMtc2VyaWYiIGZvbnQtc2l6ZT0iMTQiIGxlbmd0aEFkanVzdD0ic3BhY2luZyIgdGV4dExlbmd0aD0iNyIgeD0iMjUyLjI4MTciIHk9IjM0NS45MjU1Ij4mIzE2MDs8L3RleHQ+PHRleHQgZmlsbD0iIzAwMDAwMCIgZm9udC1mYW1pbHk9InNhbnMtc2VyaWYiIGZvbnQtc2l6ZT0iMTQiIGxlbmd0aEFkanVzdD0ic3BhY2luZyIgdGV4dExlbmd0aD0iMjgiIHg9IjI1OS4yODE3IiB5PSIzNDUuOTI1NSI+JiMxOTM7Z3VhPC90ZXh0PjwvZz48ZyBpZD0iZWxlbV9Db21wYXJhciI+PHBvbHlnb24gZmlsbD0iI0YxRjFGMSIgcG9pbnRzPSIzNDQuMDE3Nyw0MjYuMzM5OCwzNDIuMzg5Nyw0MzAuNDMzOCwzMzYuMTc1OSw0MzMuNTQ5LDMyOS4wNDYyLDQzNi42NTI1LDMyMy4xNjA0LDQ0MC4yNTcsMzEyLjA1NTcsNDQyLjMxMjMsMzAxLjkxMDgsNDQ0LjUyMDcsMjkwLjAwMzYsNDQ1Ljk0NTYsMjc2Ljg4NDYsNDQ2LjYyODMsMjY1LjQ5MTIsNDQ3LjMyODIsMjUwLjAzODEsNDQ2LjIyNzIsMjQwLjE3Nyw0NDYuMTA0OCwyMjcuNDIzNCw0NDQuMzczMSwyMTUuMTUyMyw0NDEuOTgzNSwyMDYuNTUzOSw0MzkuODUyMSwxOTcuOTE0Nyw0MzYuODY2MywxOTEuNDUxMiw0MzMuNjk0MiwxODYuMTAwNCw0MzAuMDUxNCwxODIuOTgzNiw0MjYuMzIxMiwxODEuMjI3Myw0MjIuMzEzMywxODIuMDQ1LDQxOC40NzM5LDE4NS4wMTIzLDQxNC43Nzc1LDE5MC44Mjg0LDQxMS41NDQzLDE5Ny4wNTU2LDQwOC4xNzI5LDIwNC44NDE2LDQwNS4xMzI0LDIxNy42NTgxLDQwMy41ODUzLDIyNS41MTkzLDQwMC42OTksMjM5LjQ1MTcsMzk5Ljg3NTMsMjUwLjA4MTIsMzk4LjQ1MzUsMjY1LjA2NDYsMzk4LjgxOTMsMjc2Ljg4NTQsMzk4Ljg0MiwyODcuNTU4OCwzOTkuMjA1NiwzMDEuMDg5OSw0MDEuMTY4MSwzMTEuNjU4LDQwMy4wNTIyLDMyMC44NzQzLDQwNS4zNjcsMzI5LjAxMDIsNDA4LjIwMzQsMzM2LjYwNDQsNDExLjcxMTEsMzQwLjg2NTIsNDE1LjAzMDQsMzQ1LjcxODMsNDE5LjI3NiwzNDQuODU5Nyw0MjIuNTA3NiIgc3R5bGU9InN0cm9rZTojMTgxODE4O3N0cm9rZS13aWR0aDowLjU7Ii8+PHRleHQgZmlsbD0iIzAwMDAwMCIgZm9udC1mYW1pbHk9InNhbnMtc2VyaWYiIGZvbnQtc2l6ZT0iMTQiIGxlbmd0aEFkanVzdD0ic3BhY2luZyIgdGV4dExlbmd0aD0iNTciIHg9IjIxNC40ODg5IiB5PSI0MTguOTQxMSI+Q29tcGFyYXI8L3RleHQ+PHRleHQgZmlsbD0iIzAwMDAwMCIgZm9udC1mYW1pbHk9InNhbnMtc2VyaWYiIGZvbnQtc2l6ZT0iMTQiIGxlbmd0aEFkanVzdD0ic3BhY2luZyIgdGV4dExlbmd0aD0iNyIgeD0iMjcxLjQ4ODkiIHk9IjQxOC45NDExIj4mIzE2MDs8L3RleHQ+PHRleHQgZmlsbD0iIzAwMDAwMCIgZm9udC1mYW1pbHk9InNhbnMtc2VyaWYiIGZvbnQtc2l6ZT0iMTQiIGxlbmd0aEFkanVzdD0ic3BhY2luZyIgdGV4dExlbmd0aD0iMzUiIHg9IjI3OC40ODg5IiB5PSI0MTguOTQxMSI+RGFkb3M8L3RleHQ+PHRleHQgZmlsbD0iIzAwMDAwMCIgZm9udC1mYW1pbHk9InNhbnMtc2VyaWYiIGZvbnQtc2l6ZT0iMTQiIGxlbmd0aEFkanVzdD0ic3BhY2luZyIgdGV4dExlbmd0aD0iMTQiIHg9IjIzOS40ODg5IiB5PSI0MzMuOTI1NSI+ZGE8L3RleHQ+PHRleHQgZmlsbD0iIzAwMDAwMCIgZm9udC1mYW1pbHk9InNhbnMtc2VyaWYiIGZvbnQtc2l6ZT0iMTQiIGxlbmd0aEFkanVzdD0ic3BhY2luZyIgdGV4dExlbmd0aD0iNyIgeD0iMjUzLjQ4ODkiIHk9IjQzMy45MjU1Ij4mIzE2MDs8L3RleHQ+PHRleHQgZmlsbD0iIzAwMDAwMCIgZm9udC1mYW1pbHk9InNhbnMtc2VyaWYiIGZvbnQtc2l6ZT0iMTQiIGxlbmd0aEFkanVzdD0ic3BhY2luZyIgdGV4dExlbmd0aD0iMjgiIHg9IjI2MC40ODg5IiB5PSI0MzMuOTI1NSI+JiMxOTM7Z3VhPC90ZXh0PjwvZz48ZyBpZD0iZWxlbV9HZXJhckFsZXJ0YXMiPjxwb2x5Z29uIGZpbGw9IiNGMUYxRjEiIHBvaW50cz0iNTA2LjY3MiwzMzcuMTEwMiw1MDUuMzM5OCwzMzkuNzczNCw1MDAuMjU1LDM0MS43OTk5LDQ5NC40MjA2LDM0My44MTg3LDQ4OS42MDQyLDM0Ni4xNjM2LDQ4MC41MTcxLDM0Ny41MDA1LDQ3Mi4yMTU0LDM0OC45MzcxLDQ2Mi40NzE2LDM0OS44NjQxLDQ1MS43MzYxLDM1MC4zMDgyLDQ0Mi40MTI4LDM1MC43NjM1LDQyOS43NjczLDM1MC4wNDczLDQyMS42OTc5LDM0OS45Njc2LDQxMS4yNjE0LDM0OC44NDExLDQwMS4yMTk4LDM0Ny4yODY2LDM5NC4xODM2LDM0NS45MDAyLDM4Ny4xMTQsMzQzLjk1NzgsMzgxLjgyNDksMzQxLjg5NDQsMzc3LjQ0NjMsMzM5LjUyNDcsMzc0Ljg5NTcsMzM3LjA5ODEsMzczLjQ1ODUsMzM0LjQ5MDksMzc0LjEyNzcsMzMxLjk5MzMsMzc2LjU1NTgsMzI5LjU4ODcsMzgxLjMxNTMsMzI3LjQ4NTUsMzg2LjQxMSwzMjUuMjkyMywzOTIuNzgyNCwzMjMuMzE0NSw0MDMuMjcwMywzMjIuMzA4MSw0MDkuNzAzMiwzMjAuNDMwNSw0MjEuMTA0MywzMTkuODk0Niw0MjkuODAyNiwzMTguOTY5Nyw0NDIuMDYzNiwzMTkuMjA3Nyw0NTEuNzM2OCwzMTkuMjIyNSw0NjAuNDcwOSwzMTkuNDU5LDQ3MS41NDM2LDMyMC43MzU2LDQ4MC4xOTE2LDMyMS45NjEyLDQ4Ny43MzM1LDMyMy40NjcxLDQ5NC4zOTEyLDMyNS4zMTIyLDUwMC42MDU2LDMyNy41OTQsNTA0LjA5MjMsMzI5Ljc1MzIsNTA4LjA2MzYsMzMyLjUxNTEsNTA3LjM2MSwzMzQuNjE3MyIgc3R5bGU9InN0cm9rZTojMTgxODE4O3N0cm9rZS13aWR0aDowLjU7Ii8+PHRleHQgZmlsbD0iIzAwMDAwMCIgZm9udC1mYW1pbHk9InNhbnMtc2VyaWYiIGZvbnQtc2l6ZT0iMTQiIGxlbmd0aEFkanVzdD0ic3BhY2luZyIgdGV4dExlbmd0aD0iMzUiIHg9IjM5NS42ODM0IiB5PSIzMzguNDc4OSI+R2VyYXI8L3RleHQ+PHRleHQgZmlsbD0iIzAwMDAwMCIgZm9udC1mYW1pbHk9InNhbnMtc2VyaWYiIGZvbnQtc2l6ZT0iMTQiIGxlbmd0aEFkanVzdD0ic3BhY2luZyIgdGV4dExlbmd0aD0iNyIgeD0iNDMwLjY4MzQiIHk9IjMzOC40Nzg5Ij4mIzE2MDs8L3RleHQ+PHRleHQgZmlsbD0iIzAwMDAwMCIgZm9udC1mYW1pbHk9InNhbnMtc2VyaWYiIGZvbnQtc2l6ZT0iMTQiIGxlbmd0aEFkanVzdD0ic3BhY2luZyIgdGV4dExlbmd0aD0iNDkiIHg9IjQzNy42ODM0IiB5PSIzMzguNDc4OSI+QWxlcnRhczwvdGV4dD48L2c+PGcgaWQ9ImVsZW1fQWNlc3NvUmVsYXRvcmlvcyI+PHBvbHlnb24gZmlsbD0iI0YxRjFGMSIgcG9pbnRzPSI3NzIuODcyOSw0MjYuMzM5OCw3NzEuNjU0Niw0MzAuNDMzOCw3NjcuMDA0NSw0MzMuNTQ5LDc2MS42Njg5LDQzNi42NTI1LDc1Ny4yNjQyLDQ0MC4yNTcsNzQ4Ljk1MzksNDQyLjMxMjMsNzQxLjM2MTksNDQ0LjUyMDcsNzMyLjQ1MTEsNDQ1Ljk0NTYsNzIyLjYzMzQsNDQ2LjYyODMsNzE0LjEwNzEsNDQ3LjMyODIsNzAyLjU0MjYsNDQ2LjIyNzIsNjk1LjE2Myw0NDYuMTA0OCw2ODUuNjE4OCw0NDQuMzczMSw2NzYuNDM1Niw0NDEuOTgzNSw2NzAuMDAwOSw0MzkuODUyMSw2NjMuNTM1Nyw0MzYuODY2Myw2NTguNjk4Nyw0MzMuNjk0Miw2NTQuNjk0NCw0MzAuMDUxNCw2NTIuMzYxOSw0MjYuMzIxMiw2NTEuMDQ3NSw0MjIuMzEzMyw2NTEuNjU5NSw0MTguNDczOSw2NTMuODgwMSw0MTQuNzc3NSw2NTguMjMyNiw0MTEuNTQ0Myw2NjIuODkyOCw0MDguMTcyOSw2NjguNzE5NSw0MDUuMTMyNCw2NzguMzEwOCw0MDMuNTg1Myw2ODQuMTkzOCw0MDAuNjk5LDY5NC42MjAyLDM5OS44NzUzLDcwMi41NzQ5LDM5OC40NTM1LDcxMy43ODc4LDM5OC44MTkzLDcyMi42MzQsMzk4Ljg0Miw3MzAuNjIxNSwzOTkuMjA1Niw3NDAuNzQ3Niw0MDEuMTY4MSw3NDguNjU2Myw0MDMuMDUyMiw3NTUuNTUzNCw0MDUuMzY3LDc2MS42NDIsNDA4LjIwMzQsNzY3LjMyNTEsNDExLjcxMTEsNzcwLjUxMzcsNDE1LjAzMDQsNzc0LjE0NTYsNDE5LjI3Niw3NzMuNTAzLDQyMi41MDc2IiBzdHlsZT0ic3Ryb2tlOiMxODE4MTg7c3Ryb2tlLXdpZHRoOjAuNTsiLz48dGV4dCBmaWxsPSIjMDAwMDAwIiBmb250LWZhbWlseT0ic2Fucy1zZXJpZiIgZm9udC1zaXplPSIxNCIgbGVuZ3RoQWRqdXN0PSJzcGFjaW5nIiB0ZXh0TGVuZ3RoPSI0MiIgeD0iNjg0Ljk4MjgiIHk9IjQxOC45NDExIj5BY2Vzc288L3RleHQ+PHRleHQgZmlsbD0iIzAwMDAwMCIgZm9udC1mYW1pbHk9InNhbnMtc2VyaWYiIGZvbnQtc2l6ZT0iMTQiIGxlbmd0aEFkanVzdD0ic3BhY2luZyIgdGV4dExlbmd0aD0iNyIgeD0iNzI2Ljk4MjgiIHk9IjQxOC45NDExIj4mIzE2MDs8L3RleHQ+PHRleHQgZmlsbD0iIzAwMDAwMCIgZm9udC1mYW1pbHk9InNhbnMtc2VyaWYiIGZvbnQtc2l6ZT0iMTQiIGxlbmd0aEFkanVzdD0ic3BhY2luZyIgdGV4dExlbmd0aD0iNyIgeD0iNzMzLjk4MjgiIHk9IjQxOC45NDExIj5hPC90ZXh0Pjx0ZXh0IGZpbGw9IiMwMDAwMDAiIGZvbnQtZmFtaWx5PSJzYW5zLXNlcmlmIiBmb250LXNpemU9IjE0IiBsZW5ndGhBZGp1c3Q9InNwYWNpbmciIHRleHRMZW5ndGg9IjcwIiB4PSI2NzcuOTgyOCIgeT0iNDMzLjkyNTUiPlJlbGF0JiMyNDM7cmlvczwvdGV4dD48L2c+PGcgaWQ9ImVsZW1fQ29uZmlndXJhclBhcmFtZXRyb3MiPjxwb2x5Z29uIGZpbGw9IiNGMUYxRjEiIHBvaW50cz0iNTE2LjIwNjksMjA4LjAzMzUsNTE0LjY3NzgsMjEzLjkyMDcsNTA4Ljg0MTQsMjE4LjQwMDIsNTAyLjE0NDgsMjIyLjg2Myw0OTYuNjE2NSwyMjguMDQ2Myw0ODYuMTg2MywyMzEuMDAxNyw0NzYuNjU3NiwyMzQuMTc3NCw0NjUuNDczNywyMzYuMjI2NSw0NTMuMTUxNiwyMzcuMjA4Myw0NDIuNDUwMiwyMzguMjE0Nyw0MjcuOTM1NywyMzYuNjMxNSw0MTguNjczNywyMzYuNDU1NCw0MDYuNjk0NywyMzMuOTY1MywzOTUuMTY4OSwyMzAuNTI5LDM4Ny4wOTI5LDIyNy40NjQxLDM3OC45Nzg0LDIyMy4xNzA0LDM3Mi45MDc1LDIxOC42MDkxLDM2Ny44ODE3LDIxMy4zNzA3LDM2NC45NTQyLDIwOC4wMDY3LDM2My4zMDQ2LDIwMi4yNDMzLDM2NC4wNzI3LDE5Ni43MjIzLDM2Ni44NTk3LDE5MS40MDY5LDM3Mi4zMjI2LDE4Ni43NTc2LDM3OC4xNzE1LDE4MS45MDk1LDM4NS40ODQ1LDE3Ny41Mzc0LDM5Ny41MjI1LDE3NS4zMTI3LDQwNC45MDYyLDE3MS4xNjIxLDQxNy45OTI0LDE2OS45Nzc2LDQyNy45NzYyLDE2Ny45MzMxLDQ0Mi4wNDk1LDE2OC40NTkyLDQ1My4xNTIzLDE2OC40OTE4LDQ2My4xNzczLDE2OS4wMTQ2LDQ3NS44ODY2LDE3MS44MzY3LDQ4NS44MTI3LDE3NC41NDYsNDk0LjQ2OTMsMTc3Ljg3NDcsNTAyLjExMSwxODEuOTUzNSw1MDkuMjQzOSwxODYuOTk3NSw1MTMuMjQ1OSwxOTEuNzcwNiw1MTcuODA0MiwxOTcuODc1OCw1MTYuOTk3OCwyMDIuNTIyOCIgc3R5bGU9InN0cm9rZTojMTgxODE4O3N0cm9rZS13aWR0aDowLjU7Ii8+PHRleHQgZmlsbD0iIzAwMDAwMCIgZm9udC1mYW1pbHk9InNhbnMtc2VyaWYiIGZvbnQtc2l6ZT0iMTQiIGxlbmd0aEFkanVzdD0ic3BhY2luZyIgdGV4dExlbmd0aD0iNzAiIHg9IjQwNi4wMzkxIiB5PSIxOTEuNTQ0NSI+Q29uZmlndXJhcjwvdGV4dD48dGV4dCBmaWxsPSIjMDAwMDAwIiBmb250LWZhbWlseT0ic2Fucy1zZXJpZiIgZm9udC1zaXplPSIxNCIgbGVuZ3RoQWRqdXN0PSJzcGFjaW5nIiB0ZXh0TGVuZ3RoPSI3MSIgeD0iMzk1LjAzOTEiIHk9IjIwNi41Mjg4Ij5QYXImIzIyNjttZXRyb3M8L3RleHQ+PHRleHQgZmlsbD0iIzAwMDAwMCIgZm9udC1mYW1pbHk9InNhbnMtc2VyaWYiIGZvbnQtc2l6ZT0iMTQiIGxlbmd0aEFkanVzdD0ic3BhY2luZyIgdGV4dExlbmd0aD0iNyIgeD0iNDY2LjAzOTEiIHk9IjIwNi41Mjg4Ij4mIzE2MDs8L3RleHQ+PHRleHQgZmlsbD0iIzAwMDAwMCIgZm9udC1mYW1pbHk9InNhbnMtc2VyaWYiIGZvbnQtc2l6ZT0iMTQiIGxlbmd0aEFkanVzdD0ic3BhY2luZyIgdGV4dExlbmd0aD0iMTQiIHg9IjQ3My4wMzkxIiB5PSIyMDYuNTI4OCI+ZGU8L3RleHQ+PHRleHQgZmlsbD0iIzAwMDAwMCIgZm9udC1mYW1pbHk9InNhbnMtc2VyaWYiIGZvbnQtc2l6ZT0iMTQiIGxlbmd0aEFkanVzdD0ic3BhY2luZyIgdGV4dExlbmd0aD0iNDIiIHg9IjQyMC4wMzkxIiB5PSIyMjEuNTEzMiI+QWxlcnRhPC90ZXh0PjwvZz48ZyBpZD0iZWxlbV9WaXN1YWxpemFyRW1UZW1wb1JlYWwiPjxwb2x5Z29uIGZpbGw9IiNGMUYxRjEiIHBvaW50cz0iODU0LjEwODQsMjA4LjAzMzUsODUyLjU2NTIsMjEzLjkyMDcsODQ2LjY3NDksMjE4LjQwMDIsODM5LjkxNjQsMjIyLjg2Myw4MzQuMzM3MSwyMjguMDQ2Myw4MjMuODEwNSwyMzEuMDAxNyw4MTQuMTkzOCwyMzQuMTc3NCw4MDIuOTA2NiwyMzYuMjI2NSw3OTAuNDcwNiwyMzcuMjA4Myw3NzkuNjcwNCwyMzguMjE0Nyw3NjUuMDIxOCwyMzYuNjMxNSw3NTUuNjc0MSwyMzYuNDU1NCw3NDMuNTg0NSwyMzMuOTY1Myw3MzEuOTUyMywyMzAuNTI5LDcyMy44MDE2LDIyNy40NjQxLDcxNS42MTIxLDIyMy4xNzA0LDcwOS40ODUxLDIxOC42MDkxLDcwNC40MTMsMjEzLjM3MDcsNzAxLjQ1ODQsMjA4LjAwNjcsNjk5Ljc5MzUsMjAyLjI0MzMsNzAwLjU2ODcsMTk2LjcyMjMsNzAzLjM4MTUsMTkxLjQwNjksNzA4Ljg5NDgsMTg2Ljc1NzYsNzE0Ljc5NzgsMTgxLjkwOTUsNzIyLjE3ODQsMTc3LjUzNzQsNzM0LjMyNzYsMTc1LjMxMjcsNzQxLjc3OTUsMTcxLjE2MjEsNzU0Ljk4NjYsMTY5Ljk3NzYsNzY1LjA2MjYsMTY3LjkzMzEsNzc5LjI2NTksMTY4LjQ1OTIsNzkwLjQ3MTMsMTY4LjQ5MTgsODAwLjU4OSwxNjkuMDE0Niw4MTMuNDE1NiwxNzEuODM2Nyw4MjMuNDMzNSwxNzQuNTQ2LDgzMi4xNywxNzcuODc0Nyw4MzkuODgyMywxODEuOTUzNSw4NDcuMDgxMSwxODYuOTk3NSw4NTEuMTIwMSwxOTEuNzcwNiw4NTUuNzIwNSwxOTcuODc1OCw4NTQuOTA2NiwyMDIuNTIyOCIgc3R5bGU9InN0cm9rZTojMTgxODE4O3N0cm9rZS13aWR0aDowLjU7Ii8+PHRleHQgZmlsbD0iIzAwMDAwMCIgZm9udC1mYW1pbHk9InNhbnMtc2VyaWYiIGZvbnQtc2l6ZT0iMTQiIGxlbmd0aEFkanVzdD0ic3BhY2luZyIgdGV4dExlbmd0aD0iNzAiIHg9Ijc0My4yNDYyIiB5PSIxOTEuNTQ0NSI+VmlzdWFsaXphcjwvdGV4dD48dGV4dCBmaWxsPSIjMDAwMDAwIiBmb250LWZhbWlseT0ic2Fucy1zZXJpZiIgZm9udC1zaXplPSIxNCIgbGVuZ3RoQWRqdXN0PSJzcGFjaW5nIiB0ZXh0TGVuZ3RoPSIzNSIgeD0iNzMyLjc0NjIiIHk9IjIwNi41Mjg4Ij5EYWRvczwvdGV4dD48dGV4dCBmaWxsPSIjMDAwMDAwIiBmb250LWZhbWlseT0ic2Fucy1zZXJpZiIgZm9udC1zaXplPSIxNCIgbGVuZ3RoQWRqdXN0PSJzcGFjaW5nIiB0ZXh0TGVuZ3RoPSI3IiB4PSI3NjcuNzQ2MiIgeT0iMjA2LjUyODgiPiYjMTYwOzwvdGV4dD48dGV4dCBmaWxsPSIjMDAwMDAwIiBmb250LWZhbWlseT0ic2Fucy1zZXJpZiIgZm9udC1zaXplPSIxNCIgbGVuZ3RoQWRqdXN0PSJzcGFjaW5nIiB0ZXh0TGVuZ3RoPSIxNCIgeD0iNzc0Ljc0NjIiIHk9IjIwNi41Mjg4Ij5kYTwvdGV4dD48dGV4dCBmaWxsPSIjMDAwMDAwIiBmb250LWZhbWlseT0ic2Fucy1zZXJpZiIgZm9udC1zaXplPSIxNCIgbGVuZ3RoQWRqdXN0PSJzcGFjaW5nIiB0ZXh0TGVuZ3RoPSI3IiB4PSI3ODguNzQ2MiIgeT0iMjA2LjUyODgiPiYjMTYwOzwvdGV4dD48dGV4dCBmaWxsPSIjMDAwMDAwIiBmb250LWZhbWlseT0ic2Fucy1zZXJpZiIgZm9udC1zaXplPSIxNCIgbGVuZ3RoQWRqdXN0PSJzcGFjaW5nIiB0ZXh0TGVuZ3RoPSIyOCIgeD0iNzk1Ljc0NjIiIHk9IjIwNi41Mjg4Ij4mIzE5MztndWE8L3RleHQ+PHRleHQgZmlsbD0iIzAwMDAwMCIgZm9udC1mYW1pbHk9InNhbnMtc2VyaWYiIGZvbnQtc2l6ZT0iMTQiIGxlbmd0aEFkanVzdD0ic3BhY2luZyIgdGV4dExlbmd0aD0iMTUiIHg9IjczMS43NDYyIiB5PSIyMjEuNTEzMiI+ZW08L3RleHQ+PHRleHQgZmlsbD0iIzAwMDAwMCIgZm9udC1mYW1pbHk9InNhbnMtc2VyaWYiIGZvbnQtc2l6ZT0iMTQiIGxlbmd0aEFkanVzdD0ic3BhY2luZyIgdGV4dExlbmd0aD0iNyIgeD0iNzQ2Ljc0NjIiIHk9IjIyMS41MTMyIj4mIzE2MDs8L3RleHQ+PHRleHQgZmlsbD0iIzAwMDAwMCIgZm9udC1mYW1pbHk9InNhbnMtc2VyaWYiIGZvbnQtc2l6ZT0iMTQiIGxlbmd0aEFkanVzdD0ic3BhY2luZyIgdGV4dExlbmd0aD0iMzYiIHg9Ijc1My43NDYyIiB5PSIyMjEuNTEzMiI+VGVtcG88L3RleHQ+PHRleHQgZmlsbD0iIzAwMDAwMCIgZm9udC1mYW1pbHk9InNhbnMtc2VyaWYiIGZvbnQtc2l6ZT0iMTQiIGxlbmd0aEFkanVzdD0ic3BhY2luZyIgdGV4dExlbmd0aD0iNyIgeD0iNzg5Ljc0NjIiIHk9IjIyMS41MTMyIj4mIzE2MDs8L3RleHQ+PHRleHQgZmlsbD0iIzAwMDAwMCIgZm9udC1mYW1pbHk9InNhbnMtc2VyaWYiIGZvbnQtc2l6ZT0iMTQiIGxlbmd0aEFkanVzdD0ic3BhY2luZyIgdGV4dExlbmd0aD0iMjgiIHg9Ijc5Ni43NDYyIiB5PSIyMjEuNTEzMiI+UmVhbDwvdGV4dD48L2c+PGcgaWQ9ImVsZW1fR2VyZW5jaWFyVXN1YXJpb3MiPjxwb2x5Z29uIGZpbGw9IiNGMUYxRjEiIHBvaW50cz0iNjY5Ljc3NDUsMjA4LjAzMzUsNjY4LjU0MiwyMTMuOTIwNyw2NjMuODM4LDIxOC40MDAyLDY1OC40NDA1LDIyMi44NjMsNjUzLjk4NDgsMjI4LjA0NjMsNjQ1LjU3ODEsMjMxLjAwMTcsNjM3Ljg5ODEsMjM0LjE3NzQsNjI4Ljg4NCwyMzYuMjI2NSw2MTguOTUyNCwyMzcuMjA4Myw2MTAuMzI3MiwyMzguMjE0Nyw1OTguNjI4NywyMzYuNjMxNSw1OTEuMTYzNSwyMzYuNDU1NCw1ODEuNTA4NiwyMzMuOTY1Myw1NzIuMjE4OSwyMzAuNTI5LDU2NS43MDk3LDIyNy40NjQxLDU1OS4xNjk1LDIyMy4xNzA0LDU1NC4yNzYzLDIxOC42MDkxLDU1MC4yMjU2LDIxMy4zNzA3LDU0Ny44NjYxLDIwOC4wMDY3LDU0Ni41MzY1LDIwMi4yNDMzLDU0Ny4xNTU2LDE5Ni43MjIzLDU0OS40MDE5LDE5MS40MDY5LDU1My44MDQ5LDE4Ni43NTc2LDU1OC41MTkxLDE4MS45MDk1LDU2NC40MTMzLDE3Ny41Mzc0LDU3NC4xMTU5LDE3NS4zMTI3LDU4MC4wNjcxLDE3MS4xNjIxLDU5MC42MTQ0LDE2OS45Nzc2LDU5OC42NjEzLDE2Ny45MzMxLDYxMC4wMDQyLDE2OC40NTkyLDYxOC45NTMsMTY4LjQ5MTgsNjI3LjAzMzEsMTY5LjAxNDYsNjM3LjI3NjYsMTcxLjgzNjcsNjQ1LjI3NywxNzQuNTQ2LDY1Mi4yNTQxLDE3Ny44NzQ3LDY1OC40MTMzLDE4MS45NTM1LDY2NC4xNjI0LDE4Ni45OTc1LDY2Ny4zODc5LDE5MS43NzA2LDY3MS4wNjE5LDE5Ny44NzU4LDY3MC40MTE5LDIwMi41MjI4IiBzdHlsZT0ic3Ryb2tlOiMxODE4MTg7c3Ryb2tlLXdpZHRoOjAuNTsiLz48dGV4dCBmaWxsPSIjMDAwMDAwIiBmb250LWZhbWlseT0ic2Fucy1zZXJpZiIgZm9udC1zaXplPSIxNCIgbGVuZ3RoQWRqdXN0PSJzcGFjaW5nIiB0ZXh0TGVuZ3RoPSI2MyIgeD0iNTc3LjY4OTkiIHk9IjE5MS41NDQ1Ij5HZXJlbmNpYXI8L3RleHQ+PHRleHQgZmlsbD0iIzAwMDAwMCIgZm9udC1mYW1pbHk9InNhbnMtc2VyaWYiIGZvbnQtc2l6ZT0iMTQiIGxlbmd0aEFkanVzdD0ic3BhY2luZyIgdGV4dExlbmd0aD0iNTYiIHg9IjU3NC4xODk5IiB5PSIyMDYuNTI4OCI+VXN1JiMyMjU7cmlvczwvdGV4dD48dGV4dCBmaWxsPSIjMDAwMDAwIiBmb250LWZhbWlseT0ic2Fucy1zZXJpZiIgZm9udC1zaXplPSIxNCIgbGVuZ3RoQWRqdXN0PSJzcGFjaW5nIiB0ZXh0TGVuZ3RoPSI3IiB4PSI2MzAuMTg5OSIgeT0iMjA2LjUyODgiPiYjMTYwOzwvdGV4dD48dGV4dCBmaWxsPSIjMDAwMDAwIiBmb250LWZhbWlseT0ic2Fucy1zZXJpZiIgZm9udC1zaXplPSIxNCIgbGVuZ3RoQWRqdXN0PSJzcGFjaW5nIiB0ZXh0TGVuZ3RoPSI3IiB4PSI2MzcuMTg5OSIgeT0iMjA2LjUyODgiPmU8L3RleHQ+PHRleHQgZmlsbD0iIzAwMDAwMCIgZm9udC1mYW1pbHk9InNhbnMtc2VyaWYiIGZvbnQtc2l6ZT0iMTQiIGxlbmd0aEFkanVzdD0ic3BhY2luZyIgdGV4dExlbmd0aD0iNzEiIHg9IjU3My42ODk5IiB5PSIyMjEuNTEzMiI+UGVybWlzcyYjMjQ1O2VzPC90ZXh0PjwvZz48ZyBpZD0iZWxlbV9FeHBvcnRhckRhZG9zIj48cG9seWdvbiBmaWxsPSIjRjFGMUYxIiBwb2ludHM9IjEwNDUuMTE2MiwyMDYuODM5OCwxMDQzLjUwMjMsMjEwLjkzMzgsMTAzNy4zNDI0LDIxNC4wNDksMTAzMC4yNzQ2LDIxNy4xNTI1LDEwMjQuNDM5OCwyMjAuNzU3LDEwMTMuNDMxNSwyMjIuODEyMywxMDAzLjM3NDYsMjI1LjAyMDcsOTkxLjU3MDgsMjI2LjQ0NTYsOTc4LjU2NTYsMjI3LjEyODMsOTY3LjI3MTEsMjI3LjgyODIsOTUxLjk1MjEsMjI2LjcyNzIsOTQyLjE3NjYsMjI2LjYwNDgsOTI5LjUzMzYsMjI0Ljg3MzEsOTE3LjM2ODksMjIyLjQ4MzUsOTA4Ljg0NTIsMjIwLjM1MjEsOTAwLjI4MDksMjE3LjM2NjMsODkzLjg3MzUsMjE0LjE5NDIsODg4LjU2OTIsMjEwLjU1MTQsODg1LjQ3OTQsMjA2LjgyMTIsODgzLjczODMsMjAyLjgxMzMsODg0LjU0OSwxOTguOTczOSw4ODcuNDkwNSwxOTUuMjc3NSw4OTMuMjU2MiwxOTIuMDQ0Myw4OTkuNDI5MywxODguNjcyOSw5MDcuMTQ3NywxODUuNjMyNCw5MTkuODUzLDE4NC4wODUzLDkyNy42NDYsMTgxLjE5OSw5NDEuNDU3NSwxODAuMzc1Myw5NTEuOTk0OCwxNzguOTUzNSw5NjYuODQ4MSwxNzkuMzE5Myw5NzguNTY2NCwxNzkuMzQyLDk4OS4xNDcxLDE3OS43MDU2LDEwMDIuNTYwOSwxODEuNjY4MSwxMDEzLjAzNzIsMTgzLjU1MjIsMTAyMi4xNzM2LDE4NS44NjcsMTAzMC4yMzg5LDE4OC43MDM0LDEwMzcuNzY3MiwxOTIuMjExMSwxMDQxLjk5MSwxOTUuNTMwNCwxMDQ2LjgwMiwxOTkuNzc2LDEwNDUuOTUwOSwyMDMuMDA3NiIgc3R5bGU9InN0cm9rZTojMTgxODE4O3N0cm9rZS13aWR0aDowLjU7Ii8+PHRleHQgZmlsbD0iIzAwMDAwMCIgZm9udC1mYW1pbHk9InNhbnMtc2VyaWYiIGZvbnQtc2l6ZT0iMTQiIGxlbmd0aEFkanVzdD0ic3BhY2luZyIgdGV4dExlbmd0aD0iNTYiIHg9IjkxNi43ODE3IiB5PSIxOTkuNDQxMSI+RXhwb3J0YXI8L3RleHQ+PHRleHQgZmlsbD0iIzAwMDAwMCIgZm9udC1mYW1pbHk9InNhbnMtc2VyaWYiIGZvbnQtc2l6ZT0iMTQiIGxlbmd0aEFkanVzdD0ic3BhY2luZyIgdGV4dExlbmd0aD0iNyIgeD0iOTcyLjc4MTciIHk9IjE5OS40NDExIj4mIzE2MDs8L3RleHQ+PHRleHQgZmlsbD0iIzAwMDAwMCIgZm9udC1mYW1pbHk9InNhbnMtc2VyaWYiIGZvbnQtc2l6ZT0iMTQiIGxlbmd0aEFkanVzdD0ic3BhY2luZyIgdGV4dExlbmd0aD0iMzUiIHg9Ijk3OS43ODE3IiB5PSIxOTkuNDQxMSI+RGFkb3M8L3RleHQ+PHRleHQgZmlsbD0iIzAwMDAwMCIgZm9udC1mYW1pbHk9InNhbnMtc2VyaWYiIGZvbnQtc2l6ZT0iMTQiIGxlbmd0aEFkanVzdD0ic3BhY2luZyIgdGV4dExlbmd0aD0iMTQiIHg9Ijk0MS4yODE3IiB5PSIyMTQuNDI1NSI+ZGE8L3RleHQ+PHRleHQgZmlsbD0iIzAwMDAwMCIgZm9udC1mYW1pbHk9InNhbnMtc2VyaWYiIGZvbnQtc2l6ZT0iMTQiIGxlbmd0aEFkanVzdD0ic3BhY2luZyIgdGV4dExlbmd0aD0iNyIgeD0iOTU1LjI4MTciIHk9IjIxNC40MjU1Ij4mIzE2MDs8L3RleHQ+PHRleHQgZmlsbD0iIzAwMDAwMCIgZm9udC1mYW1pbHk9InNhbnMtc2VyaWYiIGZvbnQtc2l6ZT0iMTQiIGxlbmd0aEFkanVzdD0ic3BhY2luZyIgdGV4dExlbmd0aD0iMjgiIHg9Ijk2Mi4yODE3IiB5PSIyMTQuNDI1NSI+JiMxOTM7Z3VhPC90ZXh0PjwvZz48IS0tZW50aXR5IEZ1bmNpb25hcmlvLS0+PGcgaWQ9ImVsZW1fRnVuY2lvbmFyaW8iPjxwb2x5Z29uIGZpbGw9IiNGMUYxRjEiIHBvaW50cz0iNTYuMDQ0MiwxNDUuOTQ1OSw1NC44NzE1LDE0Ny41NDgyLDUzLjQ4NDUsMTQ5Ljg5NTEsNTEuNTAwOCwxNTEuNDc2Nyw0OS40MTYzLDE1Mi4zNDE1LDQ3Ljc1NDIsMTUyLjQxNjYsNDUuNjE4LDE1MS4zMzQ5LDQzLjYwMjMsMTUwLjYyODMsNDIuMDcyNCwxNDkuMTkzNiw0MS4yNjk5LDE0Ny41NTExLDQwLjc5MzksMTQ2LjI0MzMsNDAuMzI3NywxNDQuNTM1MSwzOS41NzA5LDE0My4wNjUxLDQwLjE1MjUsMTQxLjYyOTgsNDAuNjYyLDE0MC4wNTc2LDQyLjU3NCwxMzguODE0Miw0My45MTkyLDEzNy4yMDA4LDQ1LjU4NDMsMTM2LjY2NSw0Ny41NjM3LDEzNi4yMDM3LDUwLjEwMjEsMTM2LjQ3NzgsNTEuNDkyNCwxMzcuMTMzNSw1My4xMDg5LDEzNy40MzA3LDU1LjA3NDMsMTM5LjQ0NDMsNTUuNzU5NSwxNDEuNTcwMSw1Ni4wNTcxLDE0My4wMjA2LDU1LjcyLDE0NS40MTA4IiBzdHlsZT0ic3Ryb2tlOiMxODE4MTg7c3Ryb2tlLXdpZHRoOjAuNTsiLz48cGF0aCBkPSJNNDgsMTUyIEw0OC4xODY4LDE1MiBMNDcuNjMxNywxNTcuNCBMNDguMTcxOCwxNjIuOCBMNDguMzU1MywxNjguMiBMNDcuMzY1OSwxNzMuNiBMNDgsMTc5IE0zNSwxNjAgTDM1LDE1OS45MzA5IEw0MC4yLDE1OS42MjA5IEw0NS40LDE1OS42NTkxIEw1MC42LDE1OS45Mzk0IEw1NS44LDE1OS4zODU0IEw2MSwxNjAgTTQ4LDE3OSBMNDguMzcxOSwxNzkuMzIyMyBMNDQuOTc2NiwxODEuNjMzMSBMNDIuNjY3MiwxODQuODg0OSBMNDAuNDkwMSwxODguMjUxNSBMMzcuNTQyNCwxOTAuOTUwMSBMMzUsMTk0IE00OCwxNzkgTDQ4LjA0NTgsMTc5LjAzOTcgTDUwLjU3ODUsMTgxLjk4MTQgTDUzLjMxOTksMTg1LjEwMzkgTDU1Ljk2MDYsMTg4LjEzOTIgTDU4Ljc5MzQsMTkxLjM0MSBMNjEsMTk0ICIgZmlsbD0ibm9uZSIgc3R5bGU9InN0cm9rZTojMTgxODE4O3N0cm9rZS13aWR0aDowLjU7Ii8+PHRleHQgZmlsbD0iIzAwMDAwMCIgZm9udC1mYW1pbHk9InNhbnMtc2VyaWYiIGZvbnQtc2l6ZT0iMTQiIGxlbmd0aEFkanVzdD0ic3BhY2luZyIgdGV4dExlbmd0aD0iNzciIHg9IjYiIHk9IjIwOC43MzQ0Ij5GdW5jaW9uJiMyMjU7cmlvPC90ZXh0Pjx0ZXh0IGZpbGw9IiMwMDAwMDAiIGZvbnQtZmFtaWx5PSJzYW5zLXNlcmlmIiBmb250LXNpemU9IjE0IiBsZW5ndGhBZGp1c3Q9InNwYWNpbmciIHRleHRMZW5ndGg9Ijc3IiB4PSI2IiB5PSIyMjMuNzE4OCI+UmVzcG9ucyYjMjI1O3ZlbDwvdGV4dD48dGV4dCBmaWxsPSIjMDAwMDAwIiBmb250LWZhbWlseT0ic2Fucy1zZXJpZiIgZm9udC1zaXplPSIxNCIgbGVuZ3RoQWRqdXN0PSJzcGFjaW5nIiB0ZXh0TGVuZ3RoPSIyOCIgeD0iNiIgeT0iMjM4LjcwMzEiPnBlbGE8L3RleHQ+PHRleHQgZmlsbD0iIzAwMDAwMCIgZm9udC1mYW1pbHk9InNhbnMtc2VyaWYiIGZvbnQtc2l6ZT0iMTQiIGxlbmd0aEFkanVzdD0ic3BhY2luZyIgdGV4dExlbmd0aD0iNyIgeD0iMzQiIHk9IjIzOC43MDMxIj4mIzE2MDs8L3RleHQ+PHRleHQgZmlsbD0iIzAwMDAwMCIgZm9udC1mYW1pbHk9InNhbnMtc2VyaWYiIGZvbnQtc2l6ZT0iMTQiIGxlbmd0aEFkanVzdD0ic3BhY2luZyIgdGV4dExlbmd0aD0iNDkiIHg9IjQxIiB5PSIyMzguNzAzMSI+QW4mIzIyNTtsaXNlPC90ZXh0Pjx0ZXh0IGZpbGw9IiMwMDAwMDAiIGZvbnQtZmFtaWx5PSJzYW5zLXNlcmlmIiBmb250LXNpemU9IjE0IiBsZW5ndGhBZGp1c3Q9InNwYWNpbmciIHRleHRMZW5ndGg9IjE0IiB4PSI2IiB5PSIyNTMuNjg3NSI+ZGE8L3RleHQ+PHRleHQgZmlsbD0iIzAwMDAwMCIgZm9udC1mYW1pbHk9InNhbnMtc2VyaWYiIGZvbnQtc2l6ZT0iMTQiIGxlbmd0aEFkanVzdD0ic3BhY2luZyIgdGV4dExlbmd0aD0iNyIgeD0iMjAiIHk9IjI1My42ODc1Ij4mIzE2MDs8L3RleHQ+PHRleHQgZmlsbD0iIzAwMDAwMCIgZm9udC1mYW1pbHk9InNhbnMtc2VyaWYiIGZvbnQtc2l6ZT0iMTQiIGxlbmd0aEFkanVzdD0ic3BhY2luZyIgdGV4dExlbmd0aD0iNjMiIHg9IjI3IiB5PSIyNTMuNjg3NSI+UXVhbGlkYWRlPC90ZXh0Pjx0ZXh0IGZpbGw9IiMwMDAwMDAiIGZvbnQtZmFtaWx5PSJzYW5zLXNlcmlmIiBmb250LXNpemU9IjE0IiBsZW5ndGhBZGp1c3Q9InNwYWNpbmciIHRleHRMZW5ndGg9IjE0IiB4PSI2IiB5PSIyNjguNjcxOSI+ZGE8L3RleHQ+PHRleHQgZmlsbD0iIzAwMDAwMCIgZm9udC1mYW1pbHk9InNhbnMtc2VyaWYiIGZvbnQtc2l6ZT0iMTQiIGxlbmd0aEFkanVzdD0ic3BhY2luZyIgdGV4dExlbmd0aD0iNyIgeD0iMjAiIHk9IjI2OC42NzE5Ij4mIzE2MDs8L3RleHQ+PHRleHQgZmlsbD0iIzAwMDAwMCIgZm9udC1mYW1pbHk9InNhbnMtc2VyaWYiIGZvbnQtc2l6ZT0iMTQiIGxlbmd0aEFkanVzdD0ic3BhY2luZyIgdGV4dExlbmd0aD0iMjgiIHg9IjI3IiB5PSIyNjguNjcxOSI+JiMxOTM7Z3VhPC90ZXh0PjwvZz48IS0tZW50aXR5IFNpc3RlbWEtLT48ZyBpZD0iZWxlbV9TaXN0ZW1hIj48cG9seWdvbiBmaWxsPSIjRjFGMUYxIiBwb2ludHM9IjIwNS4wNDQyLDIzLjQ0NTksMjAzLjg3MTUsMjUuMDQ4MiwyMDIuNDg0NSwyNy4zOTUxLDIwMC41MDA4LDI4Ljk3NjcsMTk4LjQxNjMsMjkuODQxNSwxOTYuNzU0MiwyOS45MTY2LDE5NC42MTgsMjguODM0OSwxOTIuNjAyMywyOC4xMjgzLDE5MS4wNzI0LDI2LjY5MzYsMTkwLjI2OTksMjUuMDUxMSwxODkuNzkzOSwyMy43NDMzLDE4OS4zMjc3LDIyLjAzNTEsMTg4LjU3MDksMjAuNTY1MSwxODkuMTUyNSwxOS4xMjk4LDE4OS42NjIsMTcuNTU3NiwxOTEuNTc0LDE2LjMxNDIsMTkyLjkxOTIsMTQuNzAwOCwxOTQuNTg0MywxNC4xNjUsMTk2LjU2MzcsMTMuNzAzNywxOTkuMTAyMSwxMy45Nzc4LDIwMC40OTI0LDE0LjYzMzUsMjAyLjEwODksMTQuOTMwNywyMDQuMDc0MywxNi45NDQzLDIwNC43NTk1LDE5LjA3MDEsMjA1LjA1NzEsMjAuNTIwNiwyMDQuNzIsMjIuOTEwOCIgc3R5bGU9InN0cm9rZTojMTgxODE4O3N0cm9rZS13aWR0aDowLjU7Ii8+PHBhdGggZD0iTTE5NywyOS41IEwxOTcuMTg2OCwyOS41IEwxOTYuNjMxNywzNC45IEwxOTcuMTcxOCw0MC4zIEwxOTcuMzU1Myw0NS43IEwxOTYuMzY1OSw1MS4xIEwxOTcsNTYuNSBNMTg0LDM3LjUgTDE4NCwzNy40MzA5IEwxODkuMiwzNy4xMjA5IEwxOTQuNCwzNy4xNTkxIEwxOTkuNiwzNy40Mzk0IEwyMDQuOCwzNi44ODU0IEwyMTAsMzcuNSBNMTk3LDU2LjUgTDE5Ny4zNzE5LDU2LjgyMjMgTDE5My45NzY2LDU5LjEzMzEgTDE5MS42NjcyLDYyLjM4NDkgTDE4OS40OTAxLDY1Ljc1MTUgTDE4Ni41NDI0LDY4LjQ1MDEgTDE4NCw3MS41IE0xOTcsNTYuNSBMMTk3LjA0NTgsNTYuNTM5NyBMMTk5LjU3ODUsNTkuNDgxNCBMMjAyLjMxOTksNjIuNjAzOSBMMjA0Ljk2MDYsNjUuNjM5MiBMMjA3Ljc5MzQsNjguODQxIEwyMTAsNzEuNSAiIGZpbGw9Im5vbmUiIHN0eWxlPSJzdHJva2U6IzE4MTgxODtzdHJva2Utd2lkdGg6MC41OyIvPjx0ZXh0IGZpbGw9IiMwMDAwMDAiIGZvbnQtZmFtaWx5PSJzYW5zLXNlcmlmIiBmb250LXNpemU9IjE0IiBsZW5ndGhBZGp1c3Q9InNwYWNpbmciIHRleHRMZW5ndGg9IjUwIiB4PSIxNzIiIHk9Ijg2LjIzNDQiPlNpc3RlbWE8L3RleHQ+PC9nPjwhLS1lbnRpdHkgRnVuY2lvbmFyaW9zLS0+PGcgaWQ9ImVsZW1fRnVuY2lvbmFyaW9zIj48cG9seWdvbiBmaWxsPSIjRjFGMUYxIiBwb2ludHM9Ijk3NC4wNDQyLDE1Ljk0NTksOTcyLjg3MTUsMTcuNTQ4Miw5NzEuNDg0NSwxOS44OTUxLDk2OS41MDA4LDIxLjQ3NjcsOTY3LjQxNjMsMjIuMzQxNSw5NjUuNzU0MiwyMi40MTY2LDk2My42MTgsMjEuMzM0OSw5NjEuNjAyMywyMC42MjgzLDk2MC4wNzI0LDE5LjE5MzYsOTU5LjI2OTksMTcuNTUxMSw5NTguNzkzOSwxNi4yNDMzLDk1OC4zMjc3LDE0LjUzNTEsOTU3LjU3MDksMTMuMDY1MSw5NTguMTUyNSwxMS42Mjk4LDk1OC42NjIsMTAuMDU3Niw5NjAuNTc0LDguODE0Miw5NjEuOTE5Miw3LjIwMDgsOTYzLjU4NDMsNi42NjUsOTY1LjU2MzcsNi4yMDM3LDk2OC4xMDIxLDYuNDc3OCw5NjkuNDkyNCw3LjEzMzUsOTcxLjEwODksNy40MzA3LDk3My4wNzQzLDkuNDQ0Myw5NzMuNzU5NSwxMS41NzAxLDk3NC4wNTcxLDEzLjAyMDYsOTczLjcyLDE1LjQxMDgiIHN0eWxlPSJzdHJva2U6IzE4MTgxODtzdHJva2Utd2lkdGg6MC41OyIvPjxwYXRoIGQ9Ik05NjYsMjIgTDk2Ni4xODY4LDIyIEw5NjUuNjMxNywyNy40IEw5NjYuMTcxOCwzMi44IEw5NjYuMzU1MywzOC4yIEw5NjUuMzY1OSw0My42IEw5NjYsNDkgTTk1MywzMCBMOTUzLDI5LjkzMDkgTDk1OC4yLDI5LjYyMDkgTDk2My40LDI5LjY1OTEgTDk2OC42LDI5LjkzOTQgTDk3My44LDI5LjM4NTQgTDk3OSwzMCBNOTY2LDQ5IEw5NjYuMzcxOSw0OS4zMjIzIEw5NjIuOTc2Niw1MS42MzMxIEw5NjAuNjY3Miw1NC44ODQ5IEw5NTguNDkwMSw1OC4yNTE1IEw5NTUuNTQyNCw2MC45NTAxIEw5NTMsNjQgTTk2Niw0OSBMOTY2LjA0NTgsNDkuMDM5NyBMOTY4LjU3ODUsNTEuOTgxNCBMOTcxLjMxOTksNTUuMTAzOSBMOTczLjk2MDYsNTguMTM5MiBMOTc2Ljc5MzQsNjEuMzQxIEw5NzksNjQgIiBmaWxsPSJub25lIiBzdHlsZT0ic3Ryb2tlOiMxODE4MTg7c3Ryb2tlLXdpZHRoOjAuNTsiLz48dGV4dCBmaWxsPSIjMDAwMDAwIiBmb250LWZhbWlseT0ic2Fucy1zZXJpZiIgZm9udC1zaXplPSIxNCIgbGVuZ3RoQWRqdXN0PSJzcGFjaW5nIiB0ZXh0TGVuZ3RoPSI4NCIgeD0iOTI0IiB5PSI3OC43MzQ0Ij5GdW5jaW9uJiMyMjU7cmlvczwvdGV4dD48dGV4dCBmaWxsPSIjMDAwMDAwIiBmb250LWZhbWlseT0ic2Fucy1zZXJpZiIgZm9udC1zaXplPSIxNCIgbGVuZ3RoQWRqdXN0PSJzcGFjaW5nIiB0ZXh0TGVuZ3RoPSI3NyIgeD0iOTI0IiB5PSI5My43MTg4Ij5BdXRvcml6YWRvczwvdGV4dD48L2c+PCEtLWVudGl0eSBBZG1pbmlzdHJhZG9yLS0+PGcgaWQ9ImVsZW1fQWRtaW5pc3RyYWRvciI+PHBvbHlnb24gZmlsbD0iI0YxRjFGMSIgcG9pbnRzPSI1MzMuMDQ0MiwxNS45NDU5LDUzMS44NzE1LDE3LjU0ODIsNTMwLjQ4NDUsMTkuODk1MSw1MjguNTAwOCwyMS40NzY3LDUyNi40MTYzLDIyLjM0MTUsNTI0Ljc1NDIsMjIuNDE2Niw1MjIuNjE4LDIxLjMzNDksNTIwLjYwMjMsMjAuNjI4Myw1MTkuMDcyNCwxOS4xOTM2LDUxOC4yNjk5LDE3LjU1MTEsNTE3Ljc5MzksMTYuMjQzMyw1MTcuMzI3NywxNC41MzUxLDUxNi41NzA5LDEzLjA2NTEsNTE3LjE1MjUsMTEuNjI5OCw1MTcuNjYyLDEwLjA1NzYsNTE5LjU3NCw4LjgxNDIsNTIwLjkxOTIsNy4yMDA4LDUyMi41ODQzLDYuNjY1LDUyNC41NjM3LDYuMjAzNyw1MjcuMTAyMSw2LjQ3NzgsNTI4LjQ5MjQsNy4xMzM1LDUzMC4xMDg5LDcuNDMwNyw1MzIuMDc0Myw5LjQ0NDMsNTMyLjc1OTUsMTEuNTcwMSw1MzMuMDU3MSwxMy4wMjA2LDUzMi43MiwxNS40MTA4IiBzdHlsZT0ic3Ryb2tlOiMxODE4MTg7c3Ryb2tlLXdpZHRoOjAuNTsiLz48cGF0aCBkPSJNNTI1LDIyIEw1MjUuMTg2OCwyMiBMNTI0LjYzMTcsMjcuNCBMNTI1LjE3MTgsMzIuOCBMNTI1LjM1NTMsMzguMiBMNTI0LjM2NTksNDMuNiBMNTI1LDQ5IE01MTIsMzAgTDUxMiwyOS45MzA5IEw1MTcuMiwyOS42MjA5IEw1MjIuNCwyOS42NTkxIEw1MjcuNiwyOS45Mzk0IEw1MzIuOCwyOS4zODU0IEw1MzgsMzAgTTUyNSw0OSBMNTI1LjM3MTksNDkuMzIyMyBMNTIxLjk3NjYsNTEuNjMzMSBMNTE5LjY2NzIsNTQuODg0OSBMNTE3LjQ5MDEsNTguMjUxNSBMNTE0LjU0MjQsNjAuOTUwMSBMNTEyLDY0IE01MjUsNDkgTDUyNS4wNDU4LDQ5LjAzOTcgTDUyNy41Nzg1LDUxLjk4MTQgTDUzMC4zMTk5LDU1LjEwMzkgTDUzMi45NjA2LDU4LjEzOTIgTDUzNS43OTM0LDYxLjM0MSBMNTM4LDY0ICIgZmlsbD0ibm9uZSIgc3R5bGU9InN0cm9rZTojMTgxODE4O3N0cm9rZS13aWR0aDowLjU7Ii8+PHRleHQgZmlsbD0iIzAwMDAwMCIgZm9udC1mYW1pbHk9InNhbnMtc2VyaWYiIGZvbnQtc2l6ZT0iMTQiIGxlbmd0aEFkanVzdD0ic3BhY2luZyIgdGV4dExlbmd0aD0iOTIiIHg9IjQ3OSIgeT0iNzguNzM0NCI+QWRtaW5pc3RyYWRvcjwvdGV4dD48dGV4dCBmaWxsPSIjMDAwMDAwIiBmb250LWZhbWlseT0ic2Fucy1zZXJpZiIgZm9udC1zaXplPSIxNCIgbGVuZ3RoQWRqdXN0PSJzcGFjaW5nIiB0ZXh0TGVuZ3RoPSIxNCIgeD0iNDc5IiB5PSI5My43MTg4Ij5kbzwvdGV4dD48dGV4dCBmaWxsPSIjMDAwMDAwIiBmb250LWZhbWlseT0ic2Fucy1zZXJpZiIgZm9udC1zaXplPSIxNCIgbGVuZ3RoQWRqdXN0PSJzcGFjaW5nIiB0ZXh0TGVuZ3RoPSI3IiB4PSI0OTMiIHk9IjkzLjcxODgiPiYjMTYwOzwvdGV4dD48dGV4dCBmaWxsPSIjMDAwMDAwIiBmb250LWZhbWlseT0ic2Fucy1zZXJpZiIgZm9udC1zaXplPSIxNCIgbGVuZ3RoQWRqdXN0PSJzcGFjaW5nIiB0ZXh0TGVuZ3RoPSI1MCIgeD0iNTAwIiB5PSI5My43MTg4Ij5TaXN0ZW1hPC90ZXh0PjwvZz48IS0tbGluayBGdW5jaW9uYXJpbyB0byBBbmFsaXNhci0tPjxnIGlkPSJsaW5rX0Z1bmNpb25hcmlvX0FuYWxpc2FyIj48cGF0aCBkPSJNNjIsMjcwLjY4IEw2Mi4yODAyLDI3MC42OCBMNjEuNDQ3NiwyODEuMzE2NyBMNjIuMjU3NywyOTEuOTUzMyBMNjIuNTMyOSwzMDIuNTkgTDYxLjA0ODgsMzEzLjIyNjcgTDYxLjg5NjQsMzIzLjg2MzMgTDYyLDMzNC41IEw2MiwzMzMuOTMxMyBMNzIuNDM4MiwzMzMuOTg4NyBMODIuODc2NCwzMzQuNDA5MSBMOTMuMzE0NSwzMzMuNTc4MiBMMTAzLjc1MjcsMzM1LjIzODIgTDExNC4xOTA5LDMzMy42NTk2IEwxMjQuNjI5MSwzMzQuMjM2MyBMMTM1LjA2NzMsMzM1LjA3NTkgTDE0NS41MDU1LDMzNC4zODU2IEwxNTUuOTQzNiwzMzQuNTkxIEwxNjYuMzgxOCwzMzQuNDU3NCBMMTc2LjgyLDMzNC41ICIgZmlsbD0ibm9uZSIgc3R5bGU9InN0cm9rZTojMTgxODE4O3N0cm9rZS13aWR0aDoxLjA7Ii8+PHBvbHlnb24gZmlsbD0iIzE4MTgxOCIgcG9pbnRzPSIxODEuODIsMzM0LjUsMTgxLjg0ODYsMzM0LjU2MzksMTc5Ljk2NTgsMzMzLjU2ODgsMTc4LjI1MDksMzMyLjk0ODUsMTc2LjQ4MTMsMzMyLjIwNjIsMTc0LjUzMiwzMzEuMDYyNCwxNzIuODMxNSwzMzAuNDc0MywxNzIuODEzMSwzMzAuNDU2LDE3My41Mjg0LDMzMS4xNzYzLDE3NC4zMzYyLDMzMS45ODg3LDE3NS4yMDg1LDMzMi44NjUxLDE3NS44NTg5LDMzMy41MjA5LDE3Ni44MiwzMzQuNDg1NywxNzYuOTUwMSwzMzQuNjE2NiwxNzUuODY5NiwzMzUuMTM0NCwxNzUuMTY5LDMzNi4wMzQ0LDE3NC41MTQ3LDMzNi45ODA5LDE3My41OTA3LDMzNy42NTYzLDE3Mi44MDg2LDMzOC40NzQzLDE3Mi44MTc4LDMzOC40OTUxLDE3NC42MDY2LDMzNy42Njk3LDE3Ni40MzcyLDMzNi45MzksMTc4LjI0NzYsMzM2LjE2MjYsMTgwLjA5NjUsMzM1LjQ3MzUsMTgxLjgyLDMzNC41IiBzdHlsZT0ic3Ryb2tlOiMxODE4MTg7c3Ryb2tlLXdpZHRoOjEuMDsiLz48L2c+PCEtLWxpbmsgRnVuY2lvbmFyaW8gdG8gQ29tcGFyYXItLT48ZyBpZD0ibGlua19GdW5jaW9uYXJpb19Db21wYXJhciI+PHBhdGggZD0iTTM0LDI3MC42NSBMMzQuMjgwMiwyNzAuNjUgTDMzLjQ0NzYsMjgwLjc3MzMgTDM0LjI1NzcsMjkwLjg5NjcgTDM0LjUzMjksMzAxLjAyIEwzMy4wNDg4LDMxMS4xNDMzIEwzMy44OTY0LDMyMS4yNjY3IEwzMy40MzEzLDMzMS4zOSBMMzMuNDg4NywzNDEuNTEzMyBMMzMuOTA5MSwzNTEuNjM2NyBMMzMuMDc4MiwzNjEuNzYgTDM0LjczODIsMzcxLjg4MzMgTDMzLjE1OTYsMzgyLjAwNjcgTDMzLjczNjMsMzkyLjEzIEwzNC41NzU5LDQwMi4yNTMzIEwzMy44ODU2LDQxMi4zNzY3IEwzNCw0MjIuNSBMMzQsNDIyLjU5MSBMNDQuMjMyOSw0MjIuNDU3NCBMNTQuNDY1Nyw0MjIuNzM4IEw2NC42OTg2LDQyMi44MTg4IEw3NC45MzE0LDQyMy4yODA5IEw4NS4xNjQzLDQyMy4zOTQ3IEw5NS4zOTcxLDQyMy40MDU3IEwxMDUuNjMsNDIyLjgzOTUgTDExNS44NjI5LDQyMy4xMTgxIEwxMjYuMDk1Nyw0MjMuNDM2MyBMMTM2LjMyODYsNDIxLjUzODQgTDE0Ni41NjE0LDQyMy40MDQ3IEwxNTYuNzk0Myw0MjIuMTA0NyBMMTY3LjAyNzEsNDIzLjIxMTcgTDE3Ny4yNiw0MjIuNSAiIGZpbGw9Im5vbmUiIHN0eWxlPSJzdHJva2U6IzE4MTgxODtzdHJva2Utd2lkdGg6MS4wOyIvPjxwb2x5Z29uIGZpbGw9IiMxODE4MTgiIHBvaW50cz0iMTgyLjI2LDQyMi41LDE4Mi4yODg1LDQyMi41NjQsMTgwLjQwMzksNDIxLjU3MzgsMTc4LjY4NjIsNDIwLjk1ODksMTc2LjkxNDEsNDIwLjIyMTcsMTc0Ljk2MzQsNDE5LjA4MjcsMTczLjI2LDQxOC41LDE3My4yNDE3LDQxOC40ODE3LDE3My45NTk1LDQxOS4xOTk1LDE3NC43Njk2LDQyMC4wMDk2LDE3NS42NDM5LDQyMC44ODM5LDE3Ni4yOTcsNDIxLjUzNywxNzcuMjYsNDIyLjUsMTc3LjM5MDUsNDIyLjYzMDUsMTc2LjMxMTQsNDIzLjE1MTQsMTc1LjYxMzQsNDI0LjA1MzQsMTc0Ljk2MTgsNDI1LjAwMTgsMTc0LjAzOTgsNDI1LjY3OTgsMTczLjI2LDQyNi41LDE3My4yNjkyLDQyNi41MjA4LDE3NS4wNTU3LDQyNS42OTAzLDE3Ni44ODQyLDQyNC45NTQ0LDE3OC42OTI0LDQyNC4xNzI4LDE4MC41MzkzLDQyMy40Nzg0LDE4Mi4yNiw0MjIuNSIgc3R5bGU9InN0cm9rZTojMTgxODE4O3N0cm9rZS13aWR0aDoxLjA7Ii8+PC9nPjwhLS1saW5rIFNpc3RlbWEgdG8gQXJtYXplbmFyLS0+PGcgaWQ9ImxpbmtfU2lzdGVtYV9Bcm1hemVuYXIiPjxwYXRoIGQ9Ik0yMDIsODguMiBMMjAyLjI4MDIsODguMiBMMjAxLjQ0NzYsOTguNTg0NCBMMjAyLjI1NzcsMTA4Ljk2ODkgTDIwMi41MzI5LDExOS4zNTMzIEwyMDEuMDQ4OCwxMjkuNzM3OCBMMjAxLjg5NjQsMTQwLjEyMjIgTDIwMS40MzEzLDE1MC41MDY3IEwyMDEuNDg4NywxNjAuODkxMSBMMjAxLjkwOTEsMTcxLjI3NTYgTDIwMiwxODEuNjYgIiBmaWxsPSJub25lIiBzdHlsZT0ic3Ryb2tlOiMxODE4MTg7c3Ryb2tlLXdpZHRoOjEuMDsiLz48cG9seWdvbiBmaWxsPSIjMTgxODE4IiBwb2ludHM9IjIwMiwxODYuNjYsMjAyLjA2NCwxODYuNjg4NSwyMDIuNjczOCwxODQuODAzOSwyMDMuNjU4OSwxODMuMDg2MiwyMDQuNTIxNywxODEuMzE0MSwyMDQuOTgyNywxNzkuMzYzNCwyMDYsMTc3LjY2LDIwNS45ODE3LDE3Ny42NDE3LDIwNS4wOTk1LDE3OC4zNTk1LDIwNC4zMDk2LDE3OS4xNjk2LDIwMy41ODM5LDE4MC4wNDM5LDIwMi42MzcsMTgwLjY5NywyMDIsMTgxLjY2LDIwMi4xMzA1LDE4MS43OTA1LDIwMS4wNTE0LDE4MC43MTE0LDIwMC4zNTM0LDE4MC4wMTM0LDE5OS43MDE4LDE3OS4zNjE4LDE5OC43Nzk4LDE3OC40Mzk4LDE5OCwxNzcuNjYsMTk4LjAyMDgsMTc3LjY2OTIsMTk4Ljc5MDMsMTc5LjQ1NTcsMTk5LjY1NDQsMTgxLjI4NDIsMjAwLjQ3MjgsMTgzLjA5MjQsMjAxLjM3ODQsMTg0LjkzOTMsMjAyLDE4Ni42NiIgc3R5bGU9InN0cm9rZTojMTgxODE4O3N0cm9rZS13aWR0aDoxLjA7Ii8+PC9nPjwhLS1saW5rIEZ1bmNpb25hcmlvcyB0byBBY2Vzc29SZWxhdG9yaW9zLS0+PGcgaWQ9ImxpbmtfRnVuY2lvbmFyaW9zX0FjZXNzb1JlbGF0b3Jpb3MiPjxwYXRoIGQ9Ik05MjMuNzQsNTAuNSBMOTIzLjc0LDUwLjc4MDIgTDkxMy44MjM4LDQ5Ljk0NzYgTDkwMy45MDc1LDUwLjc1NzcgTDg5My45OTEzLDUxLjAzMjkgTDg4NC4wNzUsNDkuNTQ4OCBMODc0LjE1ODgsNTAuMzk2NCBMODY0LjI0MjUsNDkuOTMxMyBMODU0LjMyNjMsNDkuOTg4NyBMODQ0LjQxLDUwLjQwOTEgTDgzNC40OTM4LDQ5LjU3ODIgTDgyNC41Nzc1LDUxLjIzODIgTDgxNC42NjEzLDQ5LjY1OTYgTDgwNC43NDUsNTAuMjM2MyBMNzk0LjgyODgsNTEuMDc1OSBMNzg0LjkxMjUsNTAuMzg1NiBMNzc0Ljk5NjMsNTAuNTkxIEw3NjUuMDgsNTAuNDU3NCBMNzU1LjE2MzgsNTAuNzM4IEw3NDUuMjQ3NSw1MC44MTg4IEw3MzUuMzMxMyw1MS4yODA5IEw3MjUuNDE1LDUxLjM5NDcgTDcxNS40OTg4LDUxLjQwNTcgTDcwNS41ODI1LDUwLjgzOTUgTDY5NS42NjYzLDUxLjExODEgTDY4NS43NSw1MC41IEw2ODYuNjg2Myw1MC41IEw2ODQuNzg4NCw2MC4zNjgzIEw2ODYuNjU0Nyw3MC4yMzY2IEw2ODUuMzU0Nyw4MC4xMDQ5IEw2ODYuNDYxNyw4OS45NzMxIEw2ODUuMDksOTkuODQxNCBMNjg1LjY1ODcsMTA5LjcwOTcgTDY4Ni43Mzg4LDExOS41NzggTDY4NS42ODUsMTI5LjQ0NjMgTDY4NS44OTA0LDEzOS4zMTQ2IEw2ODYuMjAxNSwxNDkuMTgyOSBMNjg2LjMwNSwxNTkuMDUxMSBMNjg1Ljc0NDgsMTY4LjkxOTQgTDY4Ni4xMzMsMTc4Ljc4NzcgTDY4NC45ODY4LDE4OC42NTYgTDY4Ni4xMjkyLDE5OC41MjQzIEw2ODYuNDgwOSwyMDguMzkyNiBMNjg2LjM0MjcsMjE4LjI2MDkgTDY4Ni41Njc0LDIyOC4xMjkxIEw2ODUuMTA1OSwyMzcuOTk3NCBMNjg0Ljg4MDQsMjQ3Ljg2NTcgTDY4NC45MjE1LDI1Ny43MzQgTDY4NS42NzE1LDI2Ny42MDIzIEw2ODUuNDg4LDI3Ny40NzA2IEw2ODYuNjU4NSwyODcuMzM4OSBMNjg1LjUxNzEsMjk3LjIwNzEgTDY4NS4yOTI2LDMwNy4wNzU0IEw2ODYuMDU0NCwzMTYuOTQzNyBMNjg0Ljg2MDksMzI2LjgxMiBMNjg1LjA1NzgsMzM2LjY4MDMgTDY4Ni42MTUzLDM0Ni41NDg2IEw2ODYuMzMwOSwzNTYuNDE2OSBMNjg2LjcyOTMsMzY2LjI4NTEgTDY4NS4zMjA5LDM3Ni4xNTM0IEw2ODYuMTc1NiwzODYuMDIxNyBMNjg1Ljc1LDM5NS44OSAiIGZpbGw9Im5vbmUiIHN0eWxlPSJzdHJva2U6IzE4MTgxODtzdHJva2Utd2lkdGg6MS4wOyIvPjxwb2x5Z29uIGZpbGw9IiMxODE4MTgiIHBvaW50cz0iNjg1Ljc1LDQwMC44OSw2ODUuODE0LDQwMC45MTg1LDY4Ni40MjM4LDM5OS4wMzM5LDY4Ny40MDg5LDM5Ny4zMTYyLDY4OC4yNzE3LDM5NS41NDQxLDY4OC43MzI3LDM5My41OTM0LDY4OS43NSwzOTEuODksNjg5LjczMTcsMzkxLjg3MTcsNjg4Ljg0OTUsMzkyLjU4OTUsNjg4LjA1OTYsMzkzLjM5OTYsNjg3LjMzMzksMzk0LjI3MzksNjg2LjM4NywzOTQuOTI3LDY4NS43NSwzOTUuODksNjg1Ljg4MDUsMzk2LjAyMDUsNjg0LjgwMTQsMzk0Ljk0MTQsNjg0LjEwMzQsMzk0LjI0MzQsNjgzLjQ1MTgsMzkzLjU5MTgsNjgyLjUyOTgsMzkyLjY2OTgsNjgxLjc1LDM5MS44OSw2ODEuNzcwOCwzOTEuODk5Miw2ODIuNTQwMywzOTMuNjg1Nyw2ODMuNDA0NCwzOTUuNTE0Miw2ODQuMjIyOCwzOTcuMzIyNCw2ODUuMTI4NCwzOTkuMTY5Myw2ODUuNzUsNDAwLjg5IiBzdHlsZT0ic3Ryb2tlOiMxODE4MTg7c3Ryb2tlLXdpZHRoOjEuMDsiLz48L2c+PCEtLWxpbmsgQWRtaW5pc3RyYWRvciB0byBDb25maWd1cmFyUGFyYW1ldHJvcy0tPjxnIGlkPSJsaW5rX0FkbWluaXN0cmFkb3JfQ29uZmlndXJhclBhcmFtZXRyb3MiPjxwYXRoIGQ9Ik00OTguMjUsOTUuODQgTDQ5OC41MzAyLDk1Ljg0IEw0OTcuNjk3NiwxMDUuNjk2MiBMNDk4LjUwNzcsMTE1LjU1MjUgTDQ5OC43ODI5LDEyNS40MDg3IEw0OTcuMjk4OCwxMzUuMjY1IEw0OTguMTQ2NCwxNDUuMTIxMiBMNDk3LjY4MTMsMTU0Ljk3NzUgTDQ5Ny43Mzg3LDE2NC44MzM4IEw0OTguMjUsMTc0LjY5ICIgZmlsbD0ibm9uZSIgc3R5bGU9InN0cm9rZTojMTgxODE4O3N0cm9rZS13aWR0aDoxLjA7Ii8+PHBvbHlnb24gZmlsbD0iIzE4MTgxOCIgcG9pbnRzPSI0OTguMjUsMTc5LjY5LDQ5OC4zMTQsMTc5LjcxODUsNDk4LjkyMzgsMTc3LjgzMzksNDk5LjkwODksMTc2LjExNjIsNTAwLjc3MTcsMTc0LjM0NDEsNTAxLjIzMjcsMTcyLjM5MzQsNTAyLjI1LDE3MC42OSw1MDIuMjMxNywxNzAuNjcxNyw1MDEuMzQ5NSwxNzEuMzg5NSw1MDAuNTU5NiwxNzIuMTk5Niw0OTkuODMzOSwxNzMuMDczOSw0OTguODg3LDE3My43MjcsNDk4LjI1LDE3NC42OSw0OTguMzgwNSwxNzQuODIwNSw0OTcuMzAxNCwxNzMuNzQxNCw0OTYuNjAzNCwxNzMuMDQzNCw0OTUuOTUxOCwxNzIuMzkxOCw0OTUuMDI5OCwxNzEuNDY5OCw0OTQuMjUsMTcwLjY5LDQ5NC4yNzA4LDE3MC42OTkyLDQ5NS4wNDAzLDE3Mi40ODU3LDQ5NS45MDQ0LDE3NC4zMTQyLDQ5Ni43MjI4LDE3Ni4xMjI0LDQ5Ny42Mjg0LDE3Ny45NjkzLDQ5OC4yNSwxNzkuNjkiIHN0eWxlPSJzdHJva2U6IzE4MTgxODtzdHJva2Utd2lkdGg6MS4wOyIvPjwvZz48IS0tbGluayBGdW5jaW9uYXJpb3MgdG8gVmlzdWFsaXphckVtVGVtcG9SZWFsLS0+PGcgaWQ9ImxpbmtfRnVuY2lvbmFyaW9zX1Zpc3VhbGl6YXJFbVRlbXBvUmVhbCI+PHBhdGggZD0iTTk1Miw5NS42IEw5NTIuMjgwMiw5NS42IEw5NTEuNDQ3NiwxMDUuMzM3NSBMOTUyLjI1NzcsMTE1LjA3NSBMOTUyLjUzMjksMTI0LjgxMjUgTDk1MS4wNDg4LDEzNC41NSBMOTUxLjg5NjQsMTQ0LjI4NzUgTDk1MS40MzEzLDE1NC4wMjUgTDk1MS40ODg3LDE2My43NjI1IEw5NTIsMTczLjUgTDk1MiwxNzMuNDA5MSBMOTQyLjIwNjIsMTcyLjU3ODIgTDkzMi40MTIzLDE3NC4yMzgyIEw5MjIuNjE4NSwxNzIuNjU5NiBMOTEyLjgyNDYsMTczLjIzNjMgTDkwMy4wMzA4LDE3NC4wNzU5IEw4OTMuMjM2OSwxNzMuMzg1NiBMODgzLjQ0MzEsMTczLjU5MSBMODczLjY0OTIsMTczLjQ1NzQgTDg2My44NTU0LDE3My43MzggTDg1NC4wNjE1LDE3My44MTg4IEw4NDQuMjY3NywxNzQuMjgwOSBMODM0LjQ3MzgsMTc0LjM5NDcgTDgyNC42OCwxNzMuNSAiIGZpbGw9Im5vbmUiIHN0eWxlPSJzdHJva2U6IzE4MTgxODtzdHJva2Utd2lkdGg6MS4wOyIvPjxwb2x5Z29uIGZpbGw9IiMxODE4MTgiIHBvaW50cz0iODE5LjY4LDE3My41LDgxOS43MDg1LDE3My41NjQsODIxLjQyMzksMTc0LjE3MzgsODIzLjMwNjIsMTc1LjE1ODksODI1LjEzNDEsMTc2LjAyMTcsODI2Ljc4MzQsMTc2LjQ4MjcsODI4LjY4LDE3Ny41LDgyOC42NjE3LDE3Ny40ODE3LDgyNy43Nzk1LDE3Ni41OTk1LDgyNi45ODk2LDE3NS44MDk2LDgyNi4yNjM5LDE3NS4wODM5LDgyNS4zMTcsMTc0LjEzNyw4MjQuNjgsMTczLjUsODI0LjgxMDUsMTczLjYzMDUsODI1LjMzMTQsMTcyLjU1MTQsODI2LjIzMzQsMTcxLjg1MzQsODI3LjE4MTgsMTcxLjIwMTgsODI3Ljg1OTgsMTcwLjI3OTgsODI4LjY4LDE2OS41LDgyOC42ODkyLDE2OS41MjA4LDgyNi44NzU3LDE3MC4yOTAzLDgyNS4xMDQyLDE3MS4xNTQ0LDgyMy4zMTI0LDE3MS45NzI4LDgyMS41NTkzLDE3Mi44Nzg0LDgxOS42OCwxNzMuNSIgc3R5bGU9InN0cm9rZTojMTgxODE4O3N0cm9rZS13aWR0aDoxLjA7Ii8+PC9nPjwhLS1saW5rIEFkbWluaXN0cmFkb3IgdG8gR2VyZW5jaWFyVXN1YXJpb3MtLT48ZyBpZD0ibGlua19BZG1pbmlzdHJhZG9yX0dlcmVuY2lhclVzdWFyaW9zIj48cGF0aCBkPSJNNTU5LjI1LDk1Ljg0IEw1NTkuNTMwMiw5NS44NCBMNTU4LjY5NzYsMTA2LjAwNzUgTDU1OS41MDc3LDExNi4xNzUgTDU1OS43ODI5LDEyNi4zNDI1IEw1NTguMjk4OCwxMzYuNTEgTDU1OS4xNDY0LDE0Ni42Nzc1IEw1NTguNjgxMywxNTYuODQ1IEw1NTguNzM4NywxNjcuMDEyNSBMNTU5LjI1LDE3Ny4xOCAiIGZpbGw9Im5vbmUiIHN0eWxlPSJzdHJva2U6IzE4MTgxODtzdHJva2Utd2lkdGg6MS4wOyIvPjxwb2x5Z29uIGZpbGw9IiMxODE4MTgiIHBvaW50cz0iNTU5LjI1LDE4Mi4xOCw1NTkuMzE0LDE4Mi4yMDg1LDU1OS45MjM4LDE4MC4zMjM5LDU2MC45MDg5LDE3OC42MDYyLDU2MS43NzE3LDE3Ni44MzQxLDU2Mi4yMzI3LDE3NC44ODM0LDU2My4yNSwxNzMuMTgsNTYzLjIzMTcsMTczLjE2MTcsNTYyLjM0OTUsMTczLjg3OTUsNTYxLjU1OTYsMTc0LjY4OTYsNTYwLjgzMzksMTc1LjU2MzksNTU5Ljg4NywxNzYuMjE3LDU1OS4yNSwxNzcuMTgsNTU5LjM4MDUsMTc3LjMxMDUsNTU4LjMwMTQsMTc2LjIzMTQsNTU3LjYwMzQsMTc1LjUzMzQsNTU2Ljk1MTgsMTc0Ljg4MTgsNTU2LjAyOTgsMTczLjk1OTgsNTU1LjI1LDE3My4xOCw1NTUuMjcwOCwxNzMuMTg5Miw1NTYuMDQwMywxNzQuOTc1Nyw1NTYuOTA0NCwxNzYuODA0Miw1NTcuNzIyOCwxNzguNjEyNCw1NTguNjI4NCwxODAuNDU5Myw1NTkuMjUsMTgyLjE4IiBzdHlsZT0ic3Ryb2tlOiMxODE4MTg7c3Ryb2tlLXdpZHRoOjEuMDsiLz48L2c+PCEtLWxpbmsgRnVuY2lvbmFyaW9zIHRvIEV4cG9ydGFyRGFkb3MtLT48ZyBpZD0ibGlua19GdW5jaW9uYXJpb3NfRXhwb3J0YXJEYWRvcyI+PHBhdGggZD0iTTk4MCw5NS44NCBMOTgwLjI4MDIsOTUuODQgTDk3OS40NDc2LDEwNS42NDI1IEw5ODAuMjU3NywxMTUuNDQ1IEw5ODAuNTMyOSwxMjUuMjQ3NSBMOTc5LjA0ODgsMTM1LjA1IEw5NzkuODk2NCwxNDQuODUyNSBMOTc5LjQzMTMsMTU0LjY1NSBMOTc5LjQ4ODcsMTY0LjQ1NzUgTDk4MCwxNzQuMjYgIiBmaWxsPSJub25lIiBzdHlsZT0ic3Ryb2tlOiMxODE4MTg7c3Ryb2tlLXdpZHRoOjEuMDsiLz48cG9seWdvbiBmaWxsPSIjMTgxODE4IiBwb2ludHM9Ijk4MCwxNzkuMjYsOTgwLjA2NCwxNzkuMjg4NSw5ODAuNjczOCwxNzcuNDAzOSw5ODEuNjU4OSwxNzUuNjg2Miw5ODIuNTIxNywxNzMuOTE0MSw5ODIuOTgyNywxNzEuOTYzNCw5ODQsMTcwLjI2LDk4My45ODE3LDE3MC4yNDE3LDk4My4wOTk1LDE3MC45NTk1LDk4Mi4zMDk2LDE3MS43Njk2LDk4MS41ODM5LDE3Mi42NDM5LDk4MC42MzcsMTczLjI5Nyw5ODAsMTc0LjI2LDk4MC4xMzA1LDE3NC4zOTA1LDk3OS4wNTE0LDE3My4zMTE0LDk3OC4zNTM0LDE3Mi42MTM0LDk3Ny43MDE4LDE3MS45NjE4LDk3Ni43Nzk4LDE3MS4wMzk4LDk3NiwxNzAuMjYsOTc2LjAyMDgsMTcwLjI2OTIsOTc2Ljc5MDMsMTcyLjA1NTcsOTc3LjY1NDQsMTczLjg4NDIsOTc4LjQ3MjgsMTc1LjY5MjQsOTc5LjM3ODQsMTc3LjUzOTMsOTgwLDE3OS4yNiIgc3R5bGU9InN0cm9rZTojMTgxODE4O3N0cm9rZS13aWR0aDoxLjA7Ii8+PC9nPjwhLS1saW5rIFNpc3RlbWEgdG8gR2VyYXJBbGVydGFzLS0+PGcgaWQ9ImxpbmtfU2lzdGVtYV9HZXJhckFsZXJ0YXMiPjxwYXRoIGQ9Ik0yMjIuMDQsNTAuNSBMMjIyLjA0LDUwLjc4MDIgTDIzMi4yNjc3LDQ5Ljk0NzYgTDI0Mi40OTU0LDUwLjc1NzcgTDI1Mi43MjMxLDUxLjAzMjkgTDI2Mi45NTA4LDQ5LjU0ODggTDI3My4xNzg1LDUwLjM5NjQgTDI4My40MDYyLDQ5LjkzMTMgTDI5My42MzM4LDQ5Ljk4ODcgTDMwMy44NjE1LDUwLjQwOTEgTDMxNC4wODkyLDQ5LjU3ODIgTDMyNC4zMTY5LDUxLjIzODIgTDMzNC41NDQ2LDQ5LjY1OTYgTDM0NC43NzIzLDUwLjIzNjMgTDM1NSw1MC41IEwzNTUuNTc1OSw1MC41IEwzNTQuODg1Niw2MC42NDI5IEwzNTUuMDkxLDcwLjc4NTcgTDM1NC45NTc0LDgwLjkyODYgTDM1NS4yMzgsOTEuMDcxNCBMMzU1LjMxODgsMTAxLjIxNDMgTDM1NS43ODA5LDExMS4zNTcxIEwzNTUuODk0NywxMjEuNSBMMzU1LjkwNTcsMTMxLjY0MjkgTDM1NS4zMzk1LDE0MS43ODU3IEwzNTUuNjE4MSwxNTEuOTI4NiBMMzU1LjkzNjMsMTYyLjA3MTQgTDM1NC4wMzg0LDE3Mi4yMTQzIEwzNTUuOTA0NywxODIuMzU3MSBMMzU0LjYwNDcsMTkyLjUgTDM1NS43MTE3LDIwMi42NDI5IEwzNTQuMzQsMjEyLjc4NTcgTDM1NC45MDg3LDIyMi45Mjg2IEwzNTUuOTg4OCwyMzMuMDcxNCBMMzU0LjkzNSwyNDMuMjE0MyBMMzU1LjE0MDQsMjUzLjM1NzEgTDM1NS40NTE1LDI2My41IEwzNTUuNTU1LDI3My42NDI5IEwzNTQuOTk0OCwyODMuNzg1NyBMMzU1LjM4MywyOTMuOTI4NiBMMzU0LjIzNjgsMzA0LjA3MTQgTDM1NS4zNzkyLDMxNC4yMTQzIEwzNTUuNzMwOSwzMjQuMzU3MSBMMzU1LDMzNC41IEwzNTUsMzM0LjY5NzYgTDM1Ny44MTgsMzM0Ljc3MjUgTDM2MC42MzYsMzM0LjI4NTMgTDM2My40NTQsMzM0LjIxMDEgTDM2Ni4yNzIsMzM0LjIyMzggTDM2OS4wOSwzMzQuNSAiIGZpbGw9Im5vbmUiIHN0eWxlPSJzdHJva2U6IzE4MTgxODtzdHJva2Utd2lkdGg6MS4wOyIvPjxwb2x5Z29uIGZpbGw9IiMxODE4MTgiIHBvaW50cz0iMzc0LjA5LDMzNC41LDM3NC4xMTg1LDMzNC41NjQsMzcyLjIzMzksMzMzLjU3MzgsMzcwLjUxNjIsMzMyLjk1ODksMzY4Ljc0NDEsMzMyLjIyMTcsMzY2Ljc5MzQsMzMxLjA4MjcsMzY1LjA5LDMzMC41LDM2NS4wNzE3LDMzMC40ODE3LDM2NS43ODk1LDMzMS4xOTk1LDM2Ni41OTk2LDMzMi4wMDk2LDM2Ny40NzM5LDMzMi44ODM5LDM2OC4xMjcsMzMzLjUzNywzNjkuMDksMzM0LjUsMzY5LjIyMDUsMzM0LjYzMDUsMzY4LjE0MTQsMzM1LjE1MTQsMzY3LjQ0MzQsMzM2LjA1MzQsMzY2Ljc5MTgsMzM3LjAwMTgsMzY1Ljg2OTgsMzM3LjY3OTgsMzY1LjA5LDMzOC41LDM2NS4wOTkyLDMzOC41MjA4LDM2Ni44ODU3LDMzNy42OTAzLDM2OC43MTQyLDMzNi45NTQ0LDM3MC41MjI0LDMzNi4xNzI4LDM3Mi4zNjkzLDMzNS40Nzg0LDM3NC4wOSwzMzQuNSIgc3R5bGU9InN0cm9rZTojMTgxODE4O3N0cm9rZS13aWR0aDoxLjA7Ii8+PC9nPjwhLS1saW5rIEFybWF6ZW5hciB0byBBbmFsaXNhci0tPjxnIGlkPSJsaW5rX0FybWF6ZW5hcl9BbmFsaXNhciI+PHBhdGggZD0iTTI1OCwyMjcuMTIgTDI1OC4yODAyLDIyNy4xMiBMMjU3LjQ0NzYsMjM2LjkyMTMgTDI1OC4yNTc3LDI0Ni43MjI1IEwyNTguNTMyOSwyNTYuNTIzOCBMMjU3LjA0ODgsMjY2LjMyNSBMMjU3Ljg5NjQsMjc2LjEyNjIgTDI1Ny40MzEzLDI4NS45Mjc1IEwyNTcuNDg4NywyOTUuNzI4OCBMMjU4LDMwNS41MyAiIGZpbGw9Im5vbmUiIHN0eWxlPSJzdHJva2U6IzE4MTgxODtzdHJva2Utd2lkdGg6MS4wOyIvPjxwb2x5Z29uIGZpbGw9IiMxODE4MTgiIHBvaW50cz0iMjU4LDMxMC41MywyNTguMDY0LDMxMC41NTg1LDI1OC42NzM4LDMwOC42NzM5LDI1OS42NTg5LDMwNi45NTYyLDI2MC41MjE3LDMwNS4xODQxLDI2MC45ODI3LDMwMy4yMzM0LDI2MiwzMDEuNTMsMjYxLjk4MTcsMzAxLjUxMTcsMjYxLjA5OTUsMzAyLjIyOTUsMjYwLjMwOTYsMzAzLjAzOTYsMjU5LjU4MzksMzAzLjkxMzksMjU4LjYzNywzMDQuNTY3LDI1OCwzMDUuNTMsMjU4LjEzMDUsMzA1LjY2MDUsMjU3LjA1MTQsMzA0LjU4MTQsMjU2LjM1MzQsMzAzLjg4MzQsMjU1LjcwMTgsMzAzLjIzMTgsMjU0Ljc3OTgsMzAyLjMwOTgsMjU0LDMwMS41MywyNTQuMDIwOCwzMDEuNTM5MiwyNTQuNzkwMywzMDMuMzI1NywyNTUuNjU0NCwzMDUuMTU0MiwyNTYuNDcyOCwzMDYuOTYyNCwyNTcuMzc4NCwzMDguODA5MywyNTgsMzEwLjUzIiBzdHlsZT0ic3Ryb2tlOiMxODE4MTg7c3Ryb2tlLXdpZHRoOjEuMDsiLz48dGV4dCBmaWxsPSIjMDAwMDAwIiBmb250LWZhbWlseT0ic2Fucy1zZXJpZiIgZm9udC1zaXplPSIxMyIgbGVuZ3RoQWRqdXN0PSJzcGFjaW5nIiB0ZXh0TGVuZ3RoPSI2MSIgeD0iMTk2IiB5PSIyNjQuNjE5MSI+JiMxNzE7aW5jbHVkZSYjMTg3OzwvdGV4dD48L2c+PCEtLWxpbmsgQW5hbGlzYXIgdG8gQ29tcGFyYXItLT48ZyBpZD0ibGlua19BbmFsaXNhcl9Db21wYXJhciI+PHBhdGggZD0iTTI2My4yNSwzNTguNTUgTDI2My4zNDM0LDM1OC41NSBMMjYzLjA2NTksMzY1LjUzNiBMMjYzLjMzNTksMzcyLjUyMiBMMjYzLjQyNzYsMzc5LjUwOCBMMjYyLjkzMjksMzg2LjQ5NCBMMjYzLjI1LDM5My40OCAiIGZpbGw9Im5vbmUiIHN0eWxlPSJzdHJva2U6IzE4MTgxODtzdHJva2Utd2lkdGg6MS4wOyIvPjxwb2x5Z29uIGZpbGw9IiMxODE4MTgiIHBvaW50cz0iMjYzLjI1LDM5OC40OCwyNjMuMzE0LDM5OC41MDg1LDI2My45MjM4LDM5Ni42MjM5LDI2NC45MDg5LDM5NC45MDYyLDI2NS43NzE3LDM5My4xMzQxLDI2Ni4yMzI3LDM5MS4xODM0LDI2Ny4yNSwzODkuNDgsMjY3LjIzMTcsMzg5LjQ2MTcsMjY2LjM0OTUsMzkwLjE3OTUsMjY1LjU1OTYsMzkwLjk4OTYsMjY0LjgzMzksMzkxLjg2MzksMjYzLjg4NywzOTIuNTE3LDI2My4yNSwzOTMuNDgsMjYzLjM4MDUsMzkzLjYxMDUsMjYyLjMwMTQsMzkyLjUzMTQsMjYxLjYwMzQsMzkxLjgzMzQsMjYwLjk1MTgsMzkxLjE4MTgsMjYwLjAyOTgsMzkwLjI1OTgsMjU5LjI1LDM4OS40OCwyNTkuMjcwOCwzODkuNDg5MiwyNjAuMDQwMywzOTEuMjc1NywyNjAuOTA0NCwzOTMuMTA0MiwyNjEuNzIyOCwzOTQuOTEyNCwyNjIuNjI4NCwzOTYuNzU5MywyNjMuMjUsMzk4LjQ4IiBzdHlsZT0ic3Ryb2tlOiMxODE4MTg7c3Ryb2tlLXdpZHRoOjEuMDsiLz48dGV4dCBmaWxsPSIjMDAwMDAwIiBmb250LWZhbWlseT0ic2Fucy1zZXJpZiIgZm9udC1zaXplPSIxMyIgbGVuZ3RoQWRqdXN0PSJzcGFjaW5nIiB0ZXh0TGVuZ3RoPSI2MSIgeD0iMjAxLjI1IiB5PSIzNzQuMjk5MSI+JiMxNzE7aW5jbHVkZSYjMTg3OzwvdGV4dD48L2c+PCEtLWxpbmsgR2VyYXJBbGVydGFzIHRvIEFjZXNzb1JlbGF0b3Jpb3MtLT48ZyBpZD0ibGlua19HZXJhckFsZXJ0YXNfQWNlc3NvUmVsYXRvcmlvcyI+PHBhdGggZD0iTTUwNy42OCwzMzQuNSBMNTA3LjY4LDMzNC43ODAyIEw1MTcuOTE4LDMzMy45NDc2IEw1MjguMTU2LDMzNC43NTc3IEw1MzguMzk0LDMzNS4wMzI5IEw1NDguNjMyLDMzMy41NDg4IEw1NTguODcsMzM0LjM5NjQgTDU2OS4xMDgsMzMzLjkzMTMgTDU3OS4zNDYsMzMzLjk4ODcgTDU4OS41ODQsMzM0LjQwOTEgTDU5OS44MjIsMzMzLjU3ODIgTDYxMC4wNiwzMzUuMjM4MiBMNjIwLjI5OCwzMzMuNjU5NiBMNjMwLjUzNiwzMzQuMjM2MyBMNjQwLjc3NCwzMzUuMDc1OSBMNjUxLjAxMiwzMzQuMzg1NiBMNjYxLjI1LDMzNC41IEw2NjEuMzQxLDMzNC41IEw2NjEuMjA3NCwzNDQuNTAyOSBMNjYxLjQ4OCwzNTQuNTA1NyBMNjYxLjU2ODgsMzY0LjUwODYgTDY2Mi4wMzA5LDM3NC41MTE0IEw2NjIuMTQ0NywzODQuNTE0MyBMNjYyLjE1NTcsMzk0LjUxNzEgTDY2MS4yNSw0MDQuNTIgIiBmaWxsPSJub25lIiBzdHlsZT0ic3Ryb2tlOiMxODE4MTg7c3Ryb2tlLXdpZHRoOjEuMDsiLz48cG9seWdvbiBmaWxsPSIjMTgxODE4IiBwb2ludHM9IjY2MS4yNSw0MDkuNTIsNjYxLjMxNCw0MDkuNTQ4NSw2NjEuOTIzOCw0MDcuNjYzOSw2NjIuOTA4OSw0MDUuOTQ2Miw2NjMuNzcxNyw0MDQuMTc0MSw2NjQuMjMyNyw0MDIuMjIzNCw2NjUuMjUsNDAwLjUyLDY2NS4yMzE3LDQwMC41MDE3LDY2NC4zNDk1LDQwMS4yMTk1LDY2My41NTk2LDQwMi4wMjk2LDY2Mi44MzM5LDQwMi45MDM5LDY2MS44ODcsNDAzLjU1Nyw2NjEuMjUsNDA0LjUyLDY2MS4zODA1LDQwNC42NTA1LDY2MC4zMDE0LDQwMy41NzE0LDY1OS42MDM0LDQwMi44NzM0LDY1OC45NTE4LDQwMi4yMjE4LDY1OC4wMjk4LDQwMS4yOTk4LDY1Ny4yNSw0MDAuNTIsNjU3LjI3MDgsNDAwLjUyOTIsNjU4LjA0MDMsNDAyLjMxNTcsNjU4LjkwNDQsNDA0LjE0NDIsNjU5LjcyMjgsNDA1Ljk1MjQsNjYwLjYyODQsNDA3Ljc5OTMsNjYxLjI1LDQwOS41MiIgc3R5bGU9InN0cm9rZTojMTgxODE4O3N0cm9rZS13aWR0aDoxLjA7Ii8+PHRleHQgZmlsbD0iIzAwMDAwMCIgZm9udC1mYW1pbHk9InNhbnMtc2VyaWYiIGZvbnQtc2l6ZT0iMTMiIGxlbmd0aEFkanVzdD0ic3BhY2luZyIgdGV4dExlbmd0aD0iNTUiIHg9IjU2My40NyIgeT0iMzMyLjc4OTEiPiYjMTcxO2V4dGVuZCYjMTg3OzwvdGV4dD48L2c+PCEtLWxpbmsgQ29uZmlndXJhclBhcmFtZXRyb3MgdG8gR2VyYXJBbGVydGFzLS0+PGcgaWQ9ImxpbmtfQ29uZmlndXJhclBhcmFtZXRyb3NfR2VyYXJBbGVydGFzIj48cGF0aCBkPSJNNDQxLDIzOC4yNCBMNDQxLjI4MDIsMjM4LjI0IEw0NDAuNDQ3NiwyNDcuNjY3NSBMNDQxLjI1NzcsMjU3LjA5NSBMNDQxLjUzMjksMjY2LjUyMjUgTDQ0MC4wNDg4LDI3NS45NSBMNDQwLjg5NjQsMjg1LjM3NzUgTDQ0MC40MzEzLDI5NC44MDUgTDQ0MC40ODg3LDMwNC4yMzI1IEw0NDEsMzEzLjY2ICIgZmlsbD0ibm9uZSIgc3R5bGU9InN0cm9rZTojMTgxODE4O3N0cm9rZS13aWR0aDoxLjA7Ii8+PHBvbHlnb24gZmlsbD0iIzE4MTgxOCIgcG9pbnRzPSI0NDEsMzE4LjY2LDQ0MS4wNjQsMzE4LjY4ODUsNDQxLjY3MzgsMzE2LjgwMzksNDQyLjY1ODksMzE1LjA4NjIsNDQzLjUyMTcsMzEzLjMxNDEsNDQzLjk4MjcsMzExLjM2MzQsNDQ1LDMwOS42Niw0NDQuOTgxNywzMDkuNjQxNyw0NDQuMDk5NSwzMTAuMzU5NSw0NDMuMzA5NiwzMTEuMTY5Niw0NDIuNTgzOSwzMTIuMDQzOSw0NDEuNjM3LDMxMi42OTcsNDQxLDMxMy42Niw0NDEuMTMwNSwzMTMuNzkwNSw0NDAuMDUxNCwzMTIuNzExNCw0MzkuMzUzNCwzMTIuMDEzNCw0MzguNzAxOCwzMTEuMzYxOCw0MzcuNzc5OCwzMTAuNDM5OCw0MzcsMzA5LjY2LDQzNy4wMjA4LDMwOS42NjkyLDQzNy43OTAzLDMxMS40NTU3LDQzOC42NTQ0LDMxMy4yODQyLDQzOS40NzI4LDMxNS4wOTI0LDQ0MC4zNzg0LDMxNi45MzkzLDQ0MSwzMTguNjYiIHN0eWxlPSJzdHJva2U6IzE4MTgxODtzdHJva2Utd2lkdGg6MS4wOyIvPjx0ZXh0IGZpbGw9IiMwMDAwMDAiIGZvbnQtZmFtaWx5PSJzYW5zLXNlcmlmIiBmb250LXNpemU9IjEzIiBsZW5ndGhBZGp1c3Q9InNwYWNpbmciIHRleHRMZW5ndGg9IjU1IiB4PSIzODUiIHk9IjI3NC4yMzkxIj4mIzE3MTtleHRlbmQmIzE4Nzs8L3RleHQ+PC9nPjwhLS1TUkM9W2hMSkJSamo2NUR0cEFzeEtSSWRRUVA4NkdNMjBiWWQzVzFlaGVqSVd0SEpOdjNLcnk5MHBjMWJRWmVla3lZZGZCbUp2MGxyT1hXejlHdWhQc0lseGRaRGRwWnJwdzFTZnRSRTI4Rm1LcHJVbURhUmdUcTZXUzNGRWM1Y05Ud0tjYk9aMks2NzZZU1dqU2FVU1lYSTNYRGN2QnBhTWZpb3ZobnpPZU9GN2ItRU51elQxb2hKbmwxVWpUWm5WdDJvWlVCTU9GVWk1V1BRQTZUOTFfbzllSms5NjF6NGF6ZUtxQjZUUklkLXI0cmE2cnFnS3FoejdiUTZYVGRSNUM1RU8tdDRZOTdMdWliSUlhdy10Unpqbm41NFJibFlOWDhLc28xenl2QVIyLXBRY2p1aV9tWU5lbi1tT25MS0tKbk90eS1ORHhPVmRwUUJzdmdVYTR5TmlsZlFpai1UbG5saUpHbVJZdkwtcDIxR2IxZWtDcW8zYnZreThwanlTX1NfMm9zWnN4MF9QY0VWTFdQX09oa3pqMzJUU2I2YUZRNnJzWGZGUnNVcTJWaGNsVnZtRGVrbGVtek1waHkwZml5SVpTSVZEUVJZUUJWemZ4S29kYngtX0VsRXlJYTZZaEhtS21odVFJVlpqcDFhZ0Ixd2d1SWp0Y0VFSnJBWUtzNlhSUHBXUmx0UjBESFJmbmR1RnJabU9MUDgzUkhKQUpvbXJRcFdfU19NdXpNUy1JbUFYcDVndTAxaFJTNmZxRjJDYTYwNXRtWFlIR3lnZ25qWTJFTm85b0dEYzU5bEZkOW4yVVBXT2VNMHFCT2w0N2pYekxLcDBXaEdLWFR2elZJR0VhWlgyUTE3RUQ0NkF5QjU0cGI5Q3dwenNOeDhJSHUwUU1XTXEwZGxIc0FQRVVHRXRsbV9UZm80aXhQMWpDSE13aHdOdDl5OHFQdUtMS1BRYjgxTldnZFQwcHBsaTF3QzlRZGsxRFJsSU9XSl9VVzJzR0dkUUxLUVhvZDVCelhRdWdjeGtoZEMwRW9TQWt4aC1vTzRNU19hSmFMVmYzX0J0Y0NrX2ZlZVNTYjg2Y29KZ0lKbGVFNGI4UW01ZXR5ZXNPVlVqSWdnbktHRnJMREpuVFVtS3pvbWhncGxjZzdSX3ZzSEs0cXZwRy1qaEp2Zk5uUWFmaGlZVko1UzVzOXZpMVBKM2FkOVB6R1R2aE5OYUhkYURMS1hsT1I5RlJSTE1rY3BCRzMwZGJKRWpUel9mNDRCM2lZSmlCbkt6SVZqajM2VXluc2g4LXlfcGQ2QTF4cnlTN3dxRjc1d2RSTGQzRmRKMkJNVzN6TUZscmhNSDcwWnNINld1aWJFcnFxbkVmQmhSa3VqcU1rS1RsbUN0NGRXN3h6LXA4azViSVhTTnRjN2lmakZaa0JBM2dUSHlVaEJfX3I5QjdtaGFuNXhkbzB5MF0tLT48L2c+PC9zdmc+;" vertex="1" parent="1">
            <mxGeometry x="-2860" y="-770" width="1069" height="468" as="geometry" />
          </mxCell>
        </UserObject>
      </root>
    </mxGraphModel>
  </diagram>
</mxfile>
